<svg xmlns="http://www.w3.org/2000/svg" width="35" height="24" viewBox="0 0 35 24"><defs><style>.cls-2{fill:#fff}</style></defs><g id="btn_book" transform="translate(-9583 -920)"><path id="사각형_1250" fill="none" d="M0 0h35v24H0z" transform="translate(9583 920)"/><g id="그룹_1875" transform="translate(9303.747 801.002)"><path id="패스_1337" d="M280.94 143.7a1.686 1.686 0 01-1.184-.457 1.749 1.749 0 01-.484-1.522l2.615-19.106a.708.708 0 01.7-.611h2.143a.707.707 0 110 1.414h-1.526l-2.531 18.494a.369.369 0 00.063.313.377.377 0 00.314.051c.436-.077 10.714-1.887 12.873-1.887a.707.707 0 01.707.707c0 .176.752.707 2.121.707s2.121-.531 2.121-.707a.707.707 0 01.707-.707c2.159 0 12.437 1.81 12.873 1.887a.378.378 0 00.314-.051.369.369 0 00.063-.313l-2.529-18.497h-1.526a.707.707 0 010-1.414h2.126a.729.729 0 01.722.611l2.616 19.106a1.676 1.676 0 01-2.025 1.948c-3.357-.592-9.824-1.67-12.119-1.841a4.7 4.7 0 01-6.673 0c-2.3.172-8.762 1.25-12.119 1.841a2.069 2.069 0 01-.362.034z" class="cls-2" transform="translate(0 -.879)"/><path id="패스_1338" d="M311.579 139.507a.76.76 0 01-.158-.018 58.675 58.675 0 00-9.035-1.4 8.959 8.959 0 00-3.894.615.723.723 0 01-.705 0 8.99 8.99 0 00-3.887-.611 58.674 58.674 0 00-9.035 1.4.707.707 0 01-.863-.748l1.414-16.971a.706.706 0 01.2-.441c1.272-1.274 4.838-2.382 7.58-2.329a11.829 11.829 0 014.942 1.334 11.831 11.831 0 014.947-1.338c2.8-.034 6.309 1.056 7.58 2.329a.706.706 0 01.2.441l1.414 16.971a.706.706 0 01-.7.766zm-9.193-2.829a51.292 51.292 0 018.409 1.225l-1.312-15.734a11.988 11.988 0 00-6.381-1.754 10.354 10.354 0 00-4.251 1.15v12.993a.707.707 0 11-1.414 0v-12.994a10.357 10.357 0 00-4.251-1.15h-.107a12.22 12.22 0 00-6.275 1.755l-1.312 15.731a51.292 51.292 0 018.409-1.225 11.472 11.472 0 014.243.636 11.472 11.472 0 014.242-.633z" class="cls-2" transform="translate(-1.39)"/></g></g></svg>