<svg xmlns="http://www.w3.org/2000/svg" width="25" height="26" viewBox="0 0 25 26"><defs><style>.cls-1{fill:#fff}</style></defs><g id="btn_pen" transform="translate(-1330 -2439)"><g id="그룹_1915" transform="translate(1130.001 2068.756)"><path id="패스_1761" d="M212.018 394.8a.666.666 0 01-.472-.195l-7.445-7.379a.67.67 0 01-.027-.923l10.8-12.075a.673.673 0 01.482-.224.641.641 0 01.492.2l7.379 7.379a.67.67 0 01.028.92L212.52 394.57a.678.678 0 01-.481.225zm-6.52-8.078l6.489 6.432 9.843-11.073-6.43-6.431z" class="cls-1" transform="translate(-1.285 -1.235)"/><path id="패스_1762" d="M200.671 403.4a.672.672 0 01-.65-.84l2.619-10.06a.671.671 0 111.3.338l-2.329 8.949 8.951-2.388a.671.671 0 01.346 1.3l-10.063 2.683a.73.73 0 01-.174.018z" class="cls-1" transform="translate(0 -7.161)"/><path id="패스_1763" d="M228.05 381.485a.671.671 0 01-.474-1.145l2.013-2.013c.727-.727.217-2.859-1.677-4.754s-4.027-2.4-4.754-1.677l-2.013 2.013a.671.671 0 01-.949-.949l2.013-2.013c1.4-1.394 4.316-.657 6.651 1.677s3.071 5.257 1.677 6.651l-2.013 2.013a.669.669 0 01-.474.197z" class="cls-1" transform="translate(-6.583)"/></g><path id="사각형_1354" fill="none" d="M0 0h25v26H0z" transform="translate(1330 2439)"/></g></svg>