<svg xmlns="http://www.w3.org/2000/svg" width="70" height="75" viewBox="0 0 70 75">
    <defs>
        <style>
            .cls-1{fill:#fff}
        </style>
    </defs>
    <g id="icon_hand_ud" transform="translate(-268 -224)">
        <g id="그룹_9127" transform="translate(-182.901 163.933)">
            <path id="패스_1650" d="M508.379 135.087a1.743 1.743 0 0 1-1.743-1.743v-6.23a1.742 1.742 0 0 1 .952-1.553c6.184-3.149 9.32-8.6 9.32-16.216v-2.475a86.869 86.869 0 0 0-1.276-12.252 9.757 9.757 0 0 0-1.782-3.481 3.834 3.834 0 0 0-2.727-1.129 4.634 4.634 0 0 0-2.312.545 17.775 17.775 0 0 0-2 1.937 1.744 1.744 0 0 1-3.033-1.173v-.289a4.12 4.12 0 0 0-.7-2.267l-.054-.088a4.313 4.313 0 0 0-.425-.487A4.012 4.012 0 0 0 499.747 87a4.347 4.347 0 0 0-2.927 1.263 9.43 9.43 0 0 0-1.25 2.181 1.743 1.743 0 0 1-3.343-.691v-.742a4.267 4.267 0 0 0-.247-1.43 4.338 4.338 0 0 0-.986-1.525 4.129 4.129 0 0 0-2.933-1.211 4.194 4.194 0 0 0-4 3.031 3.831 3.831 0 0 0-.116.541 1.743 1.743 0 0 1-3.461-.119l-1.28-15.553c-.013-.152-.414-4.129-3.559-4.2-4.183 0-4.51 3.6-4.51 4.7.029.717.751 19.247.482 25.345a15.451 15.451 0 0 1-.6 3.574 1.744 1.744 0 0 1-2.709.917l-5.71-4.212a4.5 4.5 0 0 0-6.3.848 4.495 4.495 0 0 0 .862 6.282c.04.03.079.063.117.1l5.989 5.424a26.566 26.566 0 0 1 6.686 7.246l.8 1.135c2.029 2.841 3.595 4.545 6.523 5.974a1.743 1.743 0 0 1 .978 1.567v5.9a1.743 1.743 0 1 1-3.486 0V128.5a20.207 20.207 0 0 1-6.85-6.569l-.816-1.15c-2-2.832-3.1-4.392-5.974-6.5a1.689 1.689 0 0 1-.139-.114l-6-5.436a7.97 7.97 0 0 1 9.7-12.65l3.441 2.537c0-.062.008-.125.011-.186.262-5.947-.477-24.925-.485-25.116 0-4.012 2.513-8.257 8.033-8.257 4.362.091 6.676 3.889 7 7.379l.856 10.414a7.613 7.613 0 0 1 9.933.744 8.1 8.1 0 0 1 1.335 1.793 7.727 7.727 0 0 1 4.942-1.881 7.478 7.478 0 0 1 5.316 2.211 7.346 7.346 0 0 1 .919 1.1 1.455 1.455 0 0 1 .084.14 7.708 7.708 0 0 1 .5.915c.117-.092.229-.174.334-.243a7.948 7.948 0 0 1 4.222-1.116 7.3 7.3 0 0 1 5.193 2.15 12.854 12.854 0 0 1 2.694 5.079 89.907 89.907 0 0 1 1.385 13.12v2.475c0 8.509-3.545 14.989-10.272 18.81v5.189a1.744 1.744 0 0 1-1.75 1.749z" class="cls-1" transform="translate(0 -.019)"/>
            <g id="그룹_9126" transform="translate(456.396 60.067)">
                <path id="패스_1651" d="M460.692 82.3a1.241 1.241 0 0 1-.881-.365l-3.032-3.035a1.245 1.245 0 1 1 1.761-1.761l2.153 2.153 2.246-2.246A1.245 1.245 0 1 1 464.7 78.8l-3.126 3.127a1.241 1.241 0 0 1-.882.373z" class="cls-1" transform="translate(-456.414 -60.132)"/>
                <path id="패스_1652" d="M460.751 80.574a1.244 1.244 0 0 1-1.245-1.245V63.415a1.245 1.245 0 1 1 2.49 0v15.914a1.245 1.245 0 0 1-1.245 1.245z" class="cls-1" transform="translate(-456.426 -60.075)"/>
                <path id="패스_1653" d="M463.819 65.684a1.24 1.24 0 0 1-.881-.365l-2.246-2.246-2.153 2.153a1.245 1.245 0 1 1-1.761-1.761l3.033-3.032a1.244 1.244 0 0 1 1.761 0l3.126 3.126a1.245 1.245 0 0 1-.88 2.126z" class="cls-1" transform="translate(-456.414 -60.067)"/>
            </g>
        </g>
        <path id="사각형_1417" fill="none" d="M0 0H70V75H0z" transform="translate(268 224)"/>
    </g>
</svg>
