<svg xmlns="http://www.w3.org/2000/svg" width="13" height="13" viewBox="0 0 13 13">
    <g>
        <path fill="#395ade" d="M593.315 232.517V229.9l.9.9a.556.556 0 0 0 .785-.786l-1.852-1.852a.556.556 0 0 0-.786 0l-1.852 1.852a.556.556 0 1 0 .786.786l.9-.9v2.621a4.259 4.259 0 1 0 1.111 0zm-.556 7.371a3.148 3.148 0 1 1 3.148-3.148 3.152 3.152 0 0 1-3.148 3.148zm0 0" transform="translate(-5031 -1138) translate(4444.5 910)"/>
        <path fill="none" d="M0 0H13V13H0z" transform="translate(-5031 -1138) translate(5031 1138)"/>
    </g>
</svg>
