<svg xmlns="http://www.w3.org/2000/svg" width="50" height="50" viewBox="0 0 50 50"><g opacity=".8"><path fill="none" d="M.001.001h49.998v49.998H.001z"/><path fill="#fff" d="M25 50A25 25 0 017.322 7.323a25 25 0 1135.356 35.354A24.841 24.841 0 0125 50zm5.834-23.335A.833.833 0 0030 27.5v8.336a.833.833 0 00.832.833h3.33a2.506 2.506 0 002.5-2.5V25a11.667 11.667 0 10-23.334 0v9.164a2.5 2.5 0 002.5 2.5h3.332a.833.833 0 00.84-.829V27.5a.833.833 0 00-.832-.833h-3.332c-.066 0-.141.005-.2.009v-1.31A9.523 9.523 0 0125 15.709a9.526 9.526 0 019.367 9.656v1.31a2.767 2.767 0 00-.2-.009z"/></g></svg>