<svg xmlns="http://www.w3.org/2000/svg" width="70" height="75" viewBox="0 0 70 75">
    <defs>
        <style>
            .cls-1{fill:#fff}
        </style>
    </defs>
    <g id="icon_hand_rl" transform="translate(-124 -299)">
        <g id="그룹_9125" transform="translate(-180.068 248.383)">
            <path id="패스_1645" d="M361.964 123.156a1.757 1.757 0 0 1-1.756-1.756v-6.274a1.756 1.756 0 0 1 .959-1.565c6.229-3.172 9.388-8.667 9.388-16.334v-2.494a87.461 87.461 0 0 0-1.285-12.341 9.815 9.815 0 0 0-1.8-3.508 3.859 3.859 0 0 0-2.747-1.137 4.665 4.665 0 0 0-2.33.55 17.879 17.879 0 0 0-2.012 1.951 1.756 1.756 0 0 1-3.055-1.181v-.291a4.157 4.157 0 0 0-.707-2.286c-.019-.029-.037-.057-.054-.087a4.261 4.261 0 0 0-.427-.49 4.041 4.041 0 0 0-2.873-1.2 4.379 4.379 0 0 0-2.946 1.272 9.439 9.439 0 0 0-1.259 2.2 1.756 1.756 0 0 1-3.369-.7v-.745a4.308 4.308 0 0 0-.249-1.441 4.384 4.384 0 0 0-.993-1.536 4.184 4.184 0 0 0-6.979 1.837 3.931 3.931 0 0 0-.116.546 1.772 1.772 0 0 1-1.8 1.49 1.754 1.754 0 0 1-1.689-1.61l-1.289-15.666c-.014-.156-.416-4.16-3.585-4.227-4.213 0-4.544 3.626-4.544 4.737.03.723.757 19.388.487 25.53a15.69 15.69 0 0 1-.608 3.6 1.755 1.755 0 0 1-2.729.923l-5.752-4.241a4.529 4.529 0 0 0-6.348.853 4.53 4.53 0 0 0 .867 6.329 1.371 1.371 0 0 1 .117.1l6.033 5.464a26.725 26.725 0 0 1 6.733 7.3l.812 1.145c2.043 2.862 3.62 4.577 6.571 6.017a1.756 1.756 0 0 1 .986 1.578v5.932a1.756 1.756 0 0 1-3.512 0v-4.879a20.4 20.4 0 0 1-6.9-6.618l-.822-1.16c-2.014-2.852-3.123-4.422-6.016-6.544a1.743 1.743 0 0 1-.14-.114l-6.046-5.476a8.029 8.029 0 0 1 9.772-12.743l3.466 2.557c.005-.063.008-.126.011-.189.264-5.99-.481-25.107-.489-25.3 0-4.042 2.532-8.317 8.092-8.317 4.4.091 6.726 3.918 7.047 7.434l.863 10.49a7.679 7.679 0 0 1 4.558-1.51 7.759 7.759 0 0 1 5.449 2.26 8.156 8.156 0 0 1 1.345 1.806 7.783 7.783 0 0 1 4.977-1.894 7.527 7.527 0 0 1 5.355 2.229 7.282 7.282 0 0 1 .927 1.11c.031.046.059.093.085.141a7.994 7.994 0 0 1 .5.922c.117-.092.23-.175.336-.245a8.007 8.007 0 0 1 4.254-1.124 7.349 7.349 0 0 1 5.231 2.166 13.077 13.077 0 0 1 2.713 5.116 90.367 90.367 0 0 1 1.4 13.215v2.493c0 8.572-3.572 15.1-10.348 18.948v5.226a1.757 1.757 0 0 1-1.76 1.756z" class="cls-1"/>
            <g id="그룹_9123" transform="translate(337.855 54.071)">
                <path id="패스_1646" d="M349.079 60.163h-9.87a1.5 1.5 0 0 1 0-3h9.87a1.5 1.5 0 0 1 0 3z" class="cls-1" transform="translate(-337.709 -54.071)"/>
                <path id="패스_1647" d="M348.138 63.255a1.5 1.5 0 0 1-1.061-2.561l1.985-1.984-2.079-2.078a1.5 1.5 0 1 1 2.121-2.121l3.139 3.138a1.5 1.5 0 0 1 0 2.122l-3.043 3.044a1.5 1.5 0 0 1-1.062.44z" class="cls-1" transform="translate(-337.709 -54.071)"/>
            </g>
            <g id="그룹_9124" transform="translate(304.068 54.071)">
                <path id="패스_1648" d="M317.542 60.163h-9.87a1.5 1.5 0 0 1 0-3h9.87a1.5 1.5 0 0 1 0 3z" class="cls-1" transform="translate(-304.068 -54.071)"/>
                <path id="패스_1649" d="M308.613 63.255a1.494 1.494 0 0 1-1.06-.44l-3.045-3.044a1.5 1.5 0 0 1 0-2.122l3.139-3.138a1.5 1.5 0 0 1 2.121 2.121l-2.078 2.078 1.984 1.984a1.5 1.5 0 0 1-1.061 2.561z" class="cls-1" transform="translate(-304.068 -54.071)"/>
            </g>
        </g>
        <path id="사각형_1418" fill="none" d="M0 0H70V75H0z" transform="translate(124 299)"/>
    </g>
</svg>
