<svg xmlns="http://www.w3.org/2000/svg" width="40" height="40" viewBox="0 0 40 40"><defs><clipPath id="clip-path"><circle id="타원_84" cx="20" cy="20" r="20" fill="#fff" stroke="#707070" transform="translate(30 363)"/></clipPath><style>.cls-4{fill:#fff}.cls-6{fill:#ec6b30}.cls-7{fill:#1a1311}.cls-8{fill:#e94709}.cls-10{fill:#399d26}</style></defs><g id="profil_icon" clip-path="url(#clip-path)" transform="translate(-30 -363)"><circle id="타원_86" cx="20" cy="20" r="20" fill="#fff4bf" transform="translate(30 363)"/><g id="그룹_1589" transform="translate(34.667 363.889)"><path id="패스_857" d="M941.521 424.573c-6.339-.1-11.563 4.2-11.693 9.638-.133 5.479 3.182 10.2 11.333 10.2.122 0 .24-.005.36-.005s.237.005.358.005c8.152 0 11.468-4.721 11.334-10.2-.13-5.442-5.354-9.736-11.692-9.638" class="cls-4" transform="translate(-926.153 -398.699)"/><path id="패스_858" fill="#e75221" d="M957.774 435.192a2.38 2.38 0 00-1.935-2.753c-.042-.006-.079 0-.119-.009v-.006l-3.663-.811a2.378 2.378 0 10-.817 4.685l3.941.688v-.014c.038.009.073.026.119.033a2.041 2.041 0 002.473-1.815" transform="translate(-938.916 -403.299)"/><path id="패스_859" d="M936.061 359.817c-8.393-.717-15.714 4.49-16.391 11.69-.684 7.249 3.273 13.814 14.076 14.569.161.011.318.015.477.026s.314.029.474.04c10.805.756 15.637-5.194 15.967-12.468.333-7.225-6.193-13.4-14.6-13.858" class="cls-6" transform="translate(-919.439 -356.15)"/><path id="패스_860" d="M995.451 359.483a5.042 5.042 0 11-4.782-5.594 5.212 5.212 0 014.782 5.594" class="cls-6" transform="translate(-962.629 -352.299)"/><path id="패스_861" d="M919.351 354.166a5.042 5.042 0 105.514-4.874 5.212 5.212 0 00-5.514 4.874" class="cls-6" transform="translate(-919.261 -349.271)"/><path id="패스_862" d="M960.052 404.812c-.091 1.968-2.142 3.47-4.584 3.357s-4.35-1.8-4.259-3.761 2.145-3.474 4.586-3.361 4.346 1.8 4.257 3.765" class="cls-4" transform="translate(-940.188 -383.254)"/><path id="패스_863" d="M944.306 401.717a1.125 1.125 0 11-1.053-1.427 1.28 1.28 0 011.053 1.427" class="cls-7" transform="translate(-934.227 -382.76)"/><path id="패스_864" d="M984.151 402.971a1.123 1.123 0 11-1.047-1.43 1.273 1.273 0 011.047 1.43" class="cls-7" transform="translate(-960.385 -383.581)"/><path id="패스_865" d="M961.638 405.039a1.19 1.19 0 111.424-1.131 1.305 1.305 0 01-1.424 1.131" class="cls-6" transform="translate(-946.136 -384.339)"/><path id="패스_866" d="M936.936 412.8c-1.292-.041-2.326-.734-2.313-1.553.031-.811 1.084-1.439 2.373-1.4s2.328.736 2.3 1.55-1.073 1.44-2.365 1.4" class="cls-8" transform="translate(-929.303 -389.034)"/><path id="패스_867" d="M982.675 416c-1.293-.041-2.326-.734-2.312-1.552s1.081-1.439 2.375-1.4 2.325.736 2.3 1.55-1.072 1.44-2.366 1.4" class="cls-8" transform="translate(-959.327 -391.134)"/><path id="패스_868" fill="none" stroke="#1a1311" stroke-linecap="round" stroke-miterlimit="10" stroke-width=".629" d="M14.452 22.2a1.113 1.113 0 102.19.093"/><path id="패스_869" d="M937.822 430.16a1.767 1.767 0 00-1.229-1.649l-11.565-3.444s-1.229-.367-1.143.914l.75 11.109a2.065 2.065 0 001.292 1.72l10.691 3.9s1.2.44 1.2-.843z" class="cls-10" transform="translate(-922.251 -398.992)"/><path id="패스_870" d="M963.562 430.16a1.767 1.767 0 011.229-1.649l11.565-3.444s1.229-.367 1.143.914l-.749 11.109a2.065 2.065 0 01-1.292 1.72l-10.691 3.9s-1.205.44-1.205-.843z" class="cls-10" transform="translate(-948.299 -398.992)"/><path id="패스_871" d="M936.571 462.417a4.449 4.449 0 01.238.435 15.72 15.72 0 01.952 2.675 2.44 2.44 0 01-1.456 2.9 3.938 3.938 0 01-1.243.234 3.024 3.024 0 01-1.747-.456 6.809 6.809 0 01-1.464-1.378c-.795-1.086-1.492-2.267-1.041-3.73a3.234 3.234 0 011.947-1.983 3.614 3.614 0 01.531-.158 2.95 2.95 0 013.284 1.465" class="cls-6" transform="translate(-926.706 -422.527)"/><path id="패스_872" d="M978.231 463.9a4.18 4.18 0 00-.258.4 14.36 14.36 0 00-1.081 2.486 2.4 2.4 0 001.293 2.9 4.116 4.116 0 001.219.33 3.022 3.022 0 001.755-.29 6.762 6.762 0 001.563-1.247c.843-.975 1.556-2 1.185-3.441a3.3 3.3 0 00-1.828-2.067 3.755 3.755 0 00-.517-.2 2.882 2.882 0 00-3.33 1.127" class="cls-6" transform="translate(-956.974 -423.679)"/><path id="패스_873" fill="#f27e00" d="M976.686 447.94s3.7-2.077 3.454-4.854a2.161 2.161 0 00-2.411-1.87 2.363 2.363 0 01-3.237.283 2.16 2.16 0 00-2.05 2.261c.243 2.777 4.243 4.18 4.243 4.18" transform="translate(-954.123 -409.618)"/><path id="패스_874" d="M922.4 438.253a3.173 3.173 0 003.26-3.079 3.735 3.735 0 00-3.624-3.335 3.093 3.093 0 00-2.9 3.335 3.173 3.173 0 003.26 3.079" class="cls-6" transform="translate(-919.139 -403.469)"/><path id="패스_875" d="M994.866 437.4a3.173 3.173 0 01-3.26-3.079 3.735 3.735 0 013.624-3.335 3.093 3.093 0 012.9 3.335 3.174 3.174 0 01-3.26 3.079" class="cls-6" transform="translate(-966.707 -402.907)"/></g></g></svg>