<svg xmlns="http://www.w3.org/2000/svg" width="80" height="80" viewBox="0 0 80 80">
    <g>
        <g fill="#fff5e6" stroke="#ffe6c1" stroke-width="10px" transform="translate(-43 -541) translate(43 541)">
            <circle cx="40" cy="40" r="40" stroke="none"/>
            <circle cx="40" cy="40" r="35" fill="none"/>
        </g>
        <path fill="#806a3e" d="M-11.655-20.25l-.945.675a2.828 2.828 0 0 1-1.552.517 1.59 1.59 0 0 1-1.373-.7A2.267 2.267 0 0 1-16-20.79a1.891 1.891 0 0 1 .09-.923 2.252 2.252 0 0 1 .473-.765 6.575 6.575 0 0 1 .585-.562l3.87-2.97a2.5 2.5 0 0 1 1.482-.63 2.051 2.051 0 0 1 1.733.585 2.615 2.615 0 0 1 .427 1.575v21.915a2 2 0 0 1-.67 1.552 2.281 2.281 0 0 1-1.575.608 1.861 1.861 0 0 1-1.552-.652 2.357 2.357 0 0 1-.517-1.508zM5.58-4.545a4.43 4.43 0 0 0 1.778-.36A3.293 3.293 0 0 0 8.8-6.21a7.991 7.991 0 0 0 .965-2.59 20.218 20.218 0 0 0 .36-4.207 23.2 23.2 0 0 0-.427-4.95 9.52 9.52 0 0 0-1.08-2.925 3.47 3.47 0 0 0-1.462-1.4 3.865 3.865 0 0 0-1.575-.36 3.714 3.714 0 0 0-1.553.36 3.516 3.516 0 0 0-1.44 1.4 9.52 9.52 0 0 0-1.08 2.925 23.2 23.2 0 0 0-.427 4.95A20.218 20.218 0 0 0 1.44-8.8a7.991 7.991 0 0 0 .967 2.59 3.329 3.329 0 0 0 1.418 1.305 4.272 4.272 0 0 0 1.755.36zm0 4.1a9.012 9.012 0 0 1-3.6-.7A7.025 7.025 0 0 1-.81-3.353a10.773 10.773 0 0 1-1.8-3.893 22.824 22.824 0 0 1-.63-5.76 25.592 25.592 0 0 1 .7-6.458A12.052 12.052 0 0 1-.653-23.67a7.025 7.025 0 0 1 2.79-2.272 8.508 8.508 0 0 1 3.443-.7 8.668 8.668 0 0 1 3.465.7 6.985 6.985 0 0 1 2.813 2.272 12.052 12.052 0 0 1 1.89 4.208 25.592 25.592 0 0 1 .7 6.458 22.824 22.824 0 0 1-.63 5.76 10.773 10.773 0 0 1-1.8 3.893A6.988 6.988 0 0 1 9.2-1.148a9.175 9.175 0 0 1-3.62.698z" transform="translate(-43 -541) translate(83 595)"/>
    </g>
</svg>
