<svg xmlns="http://www.w3.org/2000/svg" width="80" height="80" viewBox="0 0 80 80">
    <g>
        <g fill="#fff5e6" stroke="#ffe6c1" stroke-width="10px" transform="translate(-43 -4187.435) translate(43 4187.435)">
            <circle cx="40" cy="40" r="40" stroke="none"/>
            <circle cx="40" cy="40" r="35" fill="none"/>
        </g>
        <path fill="#806a3e" d="M-22.23-20.25l-.945.675a2.828 2.828 0 0 1-1.552.517 1.59 1.59 0 0 1-1.373-.7 2.267 2.267 0 0 1-.472-1.035 1.891 1.891 0 0 1 .09-.923 2.252 2.252 0 0 1 .472-.765 6.575 6.575 0 0 1 .585-.562l3.87-2.97a2.5 2.5 0 0 1 1.485-.63 2.051 2.051 0 0 1 1.733.585 2.615 2.615 0 0 1 .428 1.575v21.918a2 2 0 0 1-.675 1.553 2.281 2.281 0 0 1-1.575.608 1.861 1.861 0 0 1-1.552-.652 2.357 2.357 0 0 1-.517-1.508zM-5-4.545a4.43 4.43 0 0 0 1.778-.36A3.293 3.293 0 0 0-1.778-6.21 7.991 7.991 0 0 0-.81-8.8a20.218 20.218 0 0 0 .36-4.207 23.2 23.2 0 0 0-.427-4.95 9.52 9.52 0 0 0-1.08-2.925 3.47 3.47 0 0 0-1.462-1.4A3.865 3.865 0 0 0-5-22.635a3.714 3.714 0 0 0-1.553.36 3.516 3.516 0 0 0-1.44 1.4 9.52 9.52 0 0 0-1.08 2.925A23.2 23.2 0 0 0-9.5-13a20.218 20.218 0 0 0 .365 4.2 7.991 7.991 0 0 0 .967 2.59A3.329 3.329 0 0 0-6.75-4.905a4.272 4.272 0 0 0 1.75.36zm0 4.1a9.012 9.012 0 0 1-3.6-.7 7.025 7.025 0 0 1-2.79-2.205 10.773 10.773 0 0 1-1.8-3.893 22.824 22.824 0 0 1-.63-5.76 25.592 25.592 0 0 1 .7-6.458 12.052 12.052 0 0 1 1.89-4.208 7.025 7.025 0 0 1 2.79-2.272A8.508 8.508 0 0 1-5-26.64a8.668 8.668 0 0 1 3.465.7 6.985 6.985 0 0 1 2.817 2.27 12.052 12.052 0 0 1 1.89 4.208 25.592 25.592 0 0 1 .7 6.458 22.824 22.824 0 0 1-.63 5.76 10.773 10.773 0 0 1-1.8 3.893 6.988 6.988 0 0 1-2.815 2.203A9.175 9.175 0 0 1-5-.45zm21.15-4.1a4.43 4.43 0 0 0 1.778-.36 3.293 3.293 0 0 0 1.44-1.305 7.991 7.991 0 0 0 .972-2.59 20.218 20.218 0 0 0 .36-4.207 23.2 23.2 0 0 0-.427-4.95 9.52 9.52 0 0 0-1.08-2.925 3.47 3.47 0 0 0-1.462-1.4 3.865 3.865 0 0 0-1.575-.36 3.714 3.714 0 0 0-1.553.36 3.516 3.516 0 0 0-1.44 1.4 9.52 9.52 0 0 0-1.08 2.925 23.2 23.2 0 0 0-.427 4.95 20.218 20.218 0 0 0 .36 4.207 7.991 7.991 0 0 0 .967 2.588A3.329 3.329 0 0 0 14.4-4.905a4.272 4.272 0 0 0 1.755.36zm0 4.1a9.012 9.012 0 0 1-3.6-.7A7.025 7.025 0 0 1 9.76-3.35a10.773 10.773 0 0 1-1.8-3.893 22.824 22.824 0 0 1-.63-5.76 25.592 25.592 0 0 1 .7-6.458 12.052 12.052 0 0 1 1.89-4.208 7.025 7.025 0 0 1 2.79-2.272 8.508 8.508 0 0 1 3.443-.7 8.668 8.668 0 0 1 3.465.7 6.985 6.985 0 0 1 2.813 2.272 12.052 12.052 0 0 1 1.89 4.208 25.592 25.592 0 0 1 .7 6.458 22.824 22.824 0 0 1-.63 5.76 10.773 10.773 0 0 1-1.8 3.893 6.988 6.988 0 0 1-2.812 2.205 9.175 9.175 0 0 1-3.624.695z" transform="translate(-43 -4187.435) translate(83 4241.435)"/>
    </g>
</svg>
