<svg xmlns="http://www.w3.org/2000/svg" width="80" height="80" viewBox="0 0 80 80">
    <g>
        <g fill="#fff5e6" stroke="#ffe6c1" stroke-width="10px" transform="translate(-96 -644) translate(96 644)">
            <circle cx="40" cy="40" r="40" stroke="none"/>
            <circle cx="40" cy="40" r="35" fill="none"/>
        </g>
        <path fill="#806a3e" d="M-6.7-20.25l-.945.675a2.828 2.828 0 0 1-1.552.517 1.59 1.59 0 0 1-1.373-.7 2.267 2.267 0 0 1-.472-1.035 1.891 1.891 0 0 1 .09-.923 2.252 2.252 0 0 1 .473-.765 6.575 6.575 0 0 1 .579-.559l3.87-2.97a2.5 2.5 0 0 1 1.485-.63 2.051 2.051 0 0 1 1.733.585 2.615 2.615 0 0 1 .427 1.575v21.915a2 2 0 0 1-.675 1.552 2.281 2.281 0 0 1-1.575.608 1.861 1.861 0 0 1-1.552-.652A2.357 2.357 0 0 1-6.7-2.565zm11.25 0l-.945.675a2.828 2.828 0 0 1-1.553.517 1.59 1.59 0 0 1-1.373-.7A2.267 2.267 0 0 1 .2-20.79a1.891 1.891 0 0 1 .09-.923 2.252 2.252 0 0 1 .473-.765 6.575 6.575 0 0 1 .585-.562l3.87-2.97a2.5 2.5 0 0 1 1.485-.63 2.051 2.051 0 0 1 1.733.585 2.615 2.615 0 0 1 .427 1.575v21.915a2 2 0 0 1-.673 1.552 2.281 2.281 0 0 1-1.575.608 1.861 1.861 0 0 1-1.552-.652 2.357 2.357 0 0 1-.517-1.508z" transform="translate(-96 -644) translate(136 698)"/>
    </g>
</svg>
