<svg xmlns="http://www.w3.org/2000/svg" width="80" height="80" viewBox="0 0 80 80">
    <g>
        <g fill="#fff5e6" stroke="#ffe6c1" stroke-width="10px" transform="translate(-206 -644) translate(206 644)">
            <circle cx="40" cy="40" r="40" stroke="none"/>
            <circle cx="40" cy="40" r="35" fill="none"/>
        </g>
        <path fill="#806a3e" d="M-10.755-20.25l-.945.675a2.828 2.828 0 0 1-1.553.517 1.59 1.59 0 0 1-1.372-.7 2.267 2.267 0 0 1-.475-1.032 1.891 1.891 0 0 1 .09-.923 2.252 2.252 0 0 1 .472-.765 6.575 6.575 0 0 1 .585-.562l3.87-2.97a2.5 2.5 0 0 1 1.485-.63 2.051 2.051 0 0 1 1.733.585 2.615 2.615 0 0 1 .427 1.575v21.915a2 2 0 0 1-.672 1.552 2.281 2.281 0 0 1-1.575.608 1.861 1.861 0 0 1-1.552-.652 2.357 2.357 0 0 1-.517-1.508zM-.18-.855a2.637 2.637 0 0 1-2.16-.7 2.539 2.539 0 0 1-.54-1.6 6.808 6.808 0 0 1 .855-3.2A15.9 15.9 0 0 1 .247-9.54a27.494 27.494 0 0 1 3.24-3.037q1.823-1.463 3.758-2.768A4.82 4.82 0 0 0 9.72-19.4a3.1 3.1 0 0 0-.9-2.2 4.325 4.325 0 0 0-3.2-.945 5.22 5.22 0 0 0-1.35.18 3.556 3.556 0 0 0-1.26.63 4.022 4.022 0 0 0-1.035 1.26 7.562 7.562 0 0 0-.72 2.025A1.829 1.829 0 0 1 .4-17.325a2.515 2.515 0 0 1-1.53.27 1.981 1.981 0 0 1-1.193-.562 1.673 1.673 0 0 1-.473-1.238 7.551 7.551 0 0 1 .63-3.06A7.293 7.293 0 0 1-.405-24.39a8.46 8.46 0 0 1 2.678-1.642 9.119 9.119 0 0 1 3.352-.607 8.746 8.746 0 0 1 6.21 2.025A6.834 6.834 0 0 1 14-19.4a11.1 11.1 0 0 1-.135 1.688 7.211 7.211 0 0 1-.54 1.8 7.47 7.47 0 0 1-1.17 1.822 9.065 9.065 0 0 1-2.025 1.71 47.637 47.637 0 0 0-4.257 3.132A19.964 19.964 0 0 0 2.52-5.805a1.341 1.341 0 0 0-.135.18.517.517 0 0 0-.09.292.341.341 0 0 0 .135.27.9.9 0 0 0 .54.112h9.135a1.7 1.7 0 0 1 1.44.585A2.365 2.365 0 0 1 14-2.88a2.007 2.007 0 0 1-.54 1.485 1.832 1.832 0 0 1-1.35.54z" transform="translate(-206 -644) translate(246 698)"/>
    </g>
</svg>
