<svg xmlns="http://www.w3.org/2000/svg" width="80" height="80" viewBox="0 0 80 80">
    <g>
        <g fill="#fff5e6" stroke="#ffe6c1" stroke-width="10px" transform="translate(-251 -751) translate(251 751)">
            <circle cx="40" cy="40" r="40" stroke="none"/>
            <circle cx="40" cy="40" r="35" fill="none"/>
        </g>
        <path fill="#806a3e" d="M-10.98-20.25l-.945.675a2.828 2.828 0 0 1-1.553.517 1.59 1.59 0 0 1-1.372-.7 2.267 2.267 0 0 1-.472-1.035 1.891 1.891 0 0 1 .09-.923 2.252 2.252 0 0 1 .472-.765 6.575 6.575 0 0 1 .585-.562l3.87-2.97a2.5 2.5 0 0 1 1.485-.63 2.051 2.051 0 0 1 1.733.585 2.615 2.615 0 0 1 .427 1.578v21.915a2 2 0 0 1-.675 1.553 2.281 2.281 0 0 1-1.575.607 1.861 1.861 0 0 1-1.552-.652 2.357 2.357 0 0 1-.517-1.508zm16.47-6.39a11.526 11.526 0 0 1 3.307.45 7.016 7.016 0 0 1 2.588 1.372 6.348 6.348 0 0 1 1.687 2.3 8.016 8.016 0 0 1 .608 3.262 6.692 6.692 0 0 1-.585 2.925 6.488 6.488 0 0 1-1.35 1.935q-.675.585.09 1.17a6.018 6.018 0 0 1 1.755 2.2 7.788 7.788 0 0 1 .72 3.51 6.272 6.272 0 0 1-.675 2.925 6.768 6.768 0 0 1-1.845 2.228A8.5 8.5 0 0 1 9.045-.945a11.043 11.043 0 0 1-3.33.5A11.185 11.185 0 0 1 2.16-.99 8.889 8.889 0 0 1-.675-2.52 7.622 7.622 0 0 1-2.61-4.86a6.612 6.612 0 0 1-.765-2.97 2.843 2.843 0 0 1 .338-1.575 1.809 1.809 0 0 1 1.462-.81 1.719 1.719 0 0 1 1.665.54 3.6 3.6 0 0 1 .72 1.53A4.389 4.389 0 0 0 2.5-5.4a5.454 5.454 0 0 0 3.352.99 5.236 5.236 0 0 0 2.993-.832 2.6 2.6 0 0 0 1.235-2.273A6.1 6.1 0 0 0 9.9-9a2.982 2.982 0 0 0-.653-1.26 3.441 3.441 0 0 0-1.26-.878 4.98 4.98 0 0 0-1.958-.338h-.494a2.189 2.189 0 0 1-1.62-.585 2.012 2.012 0 0 1-.585-1.485 1.961 1.961 0 0 1 .563-1.485 2.282 2.282 0 0 1 1.642-.54h.315a3.491 3.491 0 0 0 2.5-1.012 3.536 3.536 0 0 0 1.055-2.677 3.045 3.045 0 0 0-1.1-2.565 4.53 4.53 0 0 0-2.858-.855 3.64 3.64 0 0 0-2.385.9 4.163 4.163 0 0 0-1.35 2.7 2.883 2.883 0 0 1-.7 1.53 1.94 1.94 0 0 1-1.822.45 1.616 1.616 0 0 1-1.49-1.058 4.145 4.145 0 0 1-.18-1.687 7.267 7.267 0 0 1 .832-2.9 6.879 6.879 0 0 1 1.783-2.14 7.81 7.81 0 0 1 2.475-1.3 9.323 9.323 0 0 1 2.88-.455z" transform="translate(-251 -751) translate(291 805)"/>
    </g>
</svg>
