<svg xmlns="http://www.w3.org/2000/svg" width="80" height="80" viewBox="0 0 80 80">
    <g>
        <g fill="#fff5e6" stroke="#ffe6c1" stroke-width="10px" transform="translate(-14 -786) translate(14 786)">
            <circle cx="40" cy="40" r="40" stroke="none"/>
            <circle cx="40" cy="40" r="35" fill="none"/>
        </g>
        <path fill="#806a3e" d="M-11.093-20.25l-.945.675a2.828 2.828 0 0 1-1.552.517 1.59 1.59 0 0 1-1.373-.7 2.267 2.267 0 0 1-.472-1.035 1.891 1.891 0 0 1 .09-.923 2.252 2.252 0 0 1 .473-.765 6.575 6.575 0 0 1 .585-.562l3.87-2.97a2.5 2.5 0 0 1 1.485-.63 2.051 2.051 0 0 1 1.733.585 2.615 2.615 0 0 1 .427 1.575v21.918a2 2 0 0 1-.675 1.553 2.281 2.281 0 0 1-1.575.608 1.861 1.861 0 0 1-1.552-.652 2.357 2.357 0 0 1-.517-1.508zM5.647-.405A9.422 9.422 0 0 1 .292-1.822 7.947 7.947 0 0 1-2.723-5.4a2.924 2.924 0 0 1-.27-1.553A1.8 1.8 0 0 1-2-8.235 2.022 2.022 0 0 1-.225-8.46 2.51 2.51 0 0 1 1.1-7.2a4.294 4.294 0 0 0 1.96 2.138 5.8 5.8 0 0 0 2.587.607A3.981 3.981 0 0 0 8.82-5.67a4.07 4.07 0 0 0 1.057-2.745A6.591 6.591 0 0 0 9.7-9.878a3.611 3.611 0 0 0-.72-1.462 4.1 4.1 0 0 0-1.51-1.125 6.08 6.08 0 0 0-2.542-.45A7.762 7.762 0 0 0 2.7-12.6a7.451 7.451 0 0 1-2.138.315 2.676 2.676 0 0 1-1.98-.72 3.361 3.361 0 0 1-.72-2.43V-24.3a1.911 1.911 0 0 1 .63-1.687 2.915 2.915 0 0 1 1.665-.427h11.025a2.085 2.085 0 0 1 1.508.54 1.961 1.961 0 0 1 .563 1.485 2.115 2.115 0 0 1-.562 1.53 1.994 1.994 0 0 1-1.508.585H2.677a.438.438 0 0 0-.495.5v4.68q0 .5.157.563a1.04 1.04 0 0 0 .561-.029 13.859 13.859 0 0 1 2.97-.315 9.726 9.726 0 0 1 3.735.653 7.341 7.341 0 0 1 2.632 1.8 7.144 7.144 0 0 1 1.552 2.678 9.945 9.945 0 0 1 .45 3.33 9.468 9.468 0 0 1-.608 3.172A7.213 7.213 0 0 1 11.993-2.7a7.491 7.491 0 0 1-2.678 1.687 10.273 10.273 0 0 1-3.668.608z" transform="translate(-14 -786) translate(54 840)"/>
    </g>
</svg>
