<svg xmlns="http://www.w3.org/2000/svg" width="80" height="80" viewBox="0 0 80 80">
    <g>
        <g fill="#fff5e6" stroke="#ffe6c1" stroke-width="10px" transform="translate(-272 -943) translate(272 943)">
            <circle cx="40" cy="40" r="40" stroke="none"/>
            <circle cx="40" cy="40" r="35" fill="none"/>
        </g>
        <path fill="#806a3e" d="M-11.767-20.25l-.945.675a2.828 2.828 0 0 1-1.552.517 1.59 1.59 0 0 1-1.373-.7 2.267 2.267 0 0 1-.473-1.035 1.891 1.891 0 0 1 .09-.923 2.252 2.252 0 0 1 .473-.765 6.575 6.575 0 0 1 .585-.562l3.87-2.97a2.5 2.5 0 0 1 1.485-.63 2.051 2.051 0 0 1 1.733.585 2.615 2.615 0 0 1 .427 1.575v21.918a2 2 0 0 1-.675 1.553A2.281 2.281 0 0 1-9.7-.405a1.861 1.861 0 0 1-1.552-.652 2.357 2.357 0 0 1-.517-1.508zm17.505 8.145a6.067 6.067 0 0 0-3.465.968 3.353 3.353 0 0 0-1.44 2.992 3.041 3.041 0 0 0 1.394 2.632 6.017 6.017 0 0 0 3.51.968 5.951 5.951 0 0 0 3.578-.968 3.086 3.086 0 0 0 1.327-2.633 3.39 3.39 0 0 0-1.395-2.993 6.017 6.017 0 0 0-3.509-.966zM1.6-19.44a2.853 2.853 0 0 0 1.215 2.452 4.862 4.862 0 0 0 2.925.878 4.963 4.963 0 0 0 2.948-.878 2.836 2.836 0 0 0 1.235-2.452 2.67 2.67 0 0 0-1.215-2.3 5.03 5.03 0 0 0-2.97-.855 4.952 4.952 0 0 0-2.925.855 2.67 2.67 0 0 0-1.213 2.3zm-5 11.565a6.653 6.653 0 0 1 1.035-3.848A7.5 7.5 0 0 1 .383-14.13a6.233 6.233 0 0 1-2.227-2.363 6.411 6.411 0 0 1-.788-3.083A6.9 6.9 0 0 1-2-22.568 6.235 6.235 0 0 1-.247-24.8a7.96 7.96 0 0 1 2.655-1.373 11.237 11.237 0 0 1 3.33-.472 11.462 11.462 0 0 1 3.352.472 7.931 7.931 0 0 1 2.677 1.373 6.235 6.235 0 0 1 1.755 2.227 6.9 6.9 0 0 1 .63 2.993 7.029 7.029 0 0 1-.7 3.1 5.409 5.409 0 0 1-2.272 2.34 6.88 6.88 0 0 1 2.767 2.385 6.98 6.98 0 0 1 .968 3.87 6.6 6.6 0 0 1-.743 3.15 7.346 7.346 0 0 1-1.98 2.363A8.669 8.669 0 0 1 9.293-.9a12.416 12.416 0 0 1-3.555.5 12.254 12.254 0 0 1-3.51-.5A8.928 8.928 0 0 1-.7-2.363a6.987 6.987 0 0 1-1.98-2.363 6.767 6.767 0 0 1-.72-3.149z" transform="translate(-272 -943) translate(312 997)"/>
    </g>
</svg>
