<svg xmlns="http://www.w3.org/2000/svg" width="80" height="80" viewBox="0 0 80 80">
    <g>
        <g fill="#fff5e6" stroke="#ffe6c1" stroke-width="10px" transform="translate(-180 -191) translate(180 191)">
            <circle cx="40" cy="40" r="40" stroke="none"/>
            <circle cx="40" cy="40" r="35" fill="none"/>
        </g>
        <path fill="#806a3e" d="M-5.805-.855a2.637 2.637 0 0 1-2.16-.7 2.539 2.539 0 0 1-.54-1.6 6.808 6.808 0 0 1 .855-3.2 15.9 15.9 0 0 1 2.273-3.2 27.494 27.494 0 0 1 3.24-3.037q1.822-1.448 3.757-2.753A4.82 4.82 0 0 0 4.1-19.4a3.1 3.1 0 0 0-.9-2.2 4.325 4.325 0 0 0-3.2-.945 5.22 5.22 0 0 0-1.35.18 3.556 3.556 0 0 0-1.26.63 4.022 4.022 0 0 0-1.035 1.26 7.562 7.562 0 0 0-.72 2.025 1.829 1.829 0 0 1-.855 1.125 2.515 2.515 0 0 1-1.53.27 1.981 1.981 0 0 1-1.193-.562 1.673 1.673 0 0 1-.472-1.238 7.551 7.551 0 0 1 .63-3.06A7.293 7.293 0 0 1-6.03-24.39a8.46 8.46 0 0 1 2.678-1.642A9.119 9.119 0 0 1 0-26.64a8.746 8.746 0 0 1 6.21 2.025A6.834 6.834 0 0 1 8.37-19.4a11.1 11.1 0 0 1-.135 1.688 7.211 7.211 0 0 1-.54 1.8 7.47 7.47 0 0 1-1.17 1.822A9.065 9.065 0 0 1 4.5-12.375 47.637 47.637 0 0 0 .248-9.248 19.964 19.964 0 0 0-3.1-5.805a1.341 1.341 0 0 0-.135.18.517.517 0 0 0-.09.292.341.341 0 0 0 .135.27.9.9 0 0 0 .54.112h9.13a1.7 1.7 0 0 1 1.44.585 2.365 2.365 0 0 1 .45 1.486 2.007 2.007 0 0 1-.54 1.48 1.832 1.832 0 0 1-1.35.54z" transform="translate(-180 -191) translate(220 245)"/>
    </g>
</svg>
