<svg xmlns="http://www.w3.org/2000/svg" width="80" height="80" viewBox="0 0 80 80">
    <g>
        <g fill="#fff5e6" stroke="#ffe6c1" stroke-width="10px" transform="translate(-272 -1398.731) translate(272 1398.731)">
            <circle cx="40" cy="40" r="40" stroke="none"/>
            <circle cx="40" cy="40" r="35" fill="none"/>
        </g>
        <path fill="#806a3e" d="M-16.492-.855a2.637 2.637 0 0 1-2.16-.7 2.539 2.539 0 0 1-.54-1.6 6.808 6.808 0 0 1 .855-3.2 15.9 15.9 0 0 1 2.273-3.2 27.494 27.494 0 0 1 3.24-3.037Q-11-14.04-9.067-15.345A4.82 4.82 0 0 0-6.592-19.4a3.1 3.1 0 0 0-.9-2.2 4.325 4.325 0 0 0-3.2-.945 5.22 5.22 0 0 0-1.35.18 3.556 3.556 0 0 0-1.26.63 4.022 4.022 0 0 0-1.035 1.26 7.562 7.562 0 0 0-.72 2.025 1.829 1.829 0 0 1-.855 1.125 2.515 2.515 0 0 1-1.53.27 1.981 1.981 0 0 1-1.192-.562 1.673 1.673 0 0 1-.472-1.238 7.551 7.551 0 0 1 .63-3.06 7.293 7.293 0 0 1 1.755-2.475 8.46 8.46 0 0 1 2.677-1.642 9.119 9.119 0 0 1 3.352-.607 8.746 8.746 0 0 1 6.21 2.025 6.834 6.834 0 0 1 2.16 5.22 11.1 11.1 0 0 1-.135 1.688 7.211 7.211 0 0 1-.54 1.8 7.47 7.47 0 0 1-1.17 1.822 9.065 9.065 0 0 1-2.025 1.71 47.637 47.637 0 0 0-4.248 3.126 19.964 19.964 0 0 0-3.352 3.443 1.341 1.341 0 0 0-.135.18.517.517 0 0 0-.09.292.341.341 0 0 0 .135.27.9.9 0 0 0 .54.112h9.135a1.7 1.7 0 0 1 1.44.585 2.365 2.365 0 0 1 .45 1.485 2.007 2.007 0 0 1-.54 1.481 1.832 1.832 0 0 1-1.35.54zm26.28-11.25a6.067 6.067 0 0 0-3.465.968 3.353 3.353 0 0 0-1.44 2.993 3.041 3.041 0 0 0 1.395 2.631 6.017 6.017 0 0 0 3.51.968 5.951 5.951 0 0 0 3.578-.968 3.086 3.086 0 0 0 1.327-2.633 3.39 3.39 0 0 0-1.393-2.992 6.017 6.017 0 0 0-3.512-.967zm-4.14-7.335a2.853 2.853 0 0 0 1.215 2.452 4.862 4.862 0 0 0 2.925.878 4.963 4.963 0 0 0 2.948-.878 2.836 2.836 0 0 0 1.238-2.452 2.67 2.67 0 0 0-1.215-2.3 5.03 5.03 0 0 0-2.97-.855 4.952 4.952 0 0 0-2.925.855 2.67 2.67 0 0 0-1.216 2.3zM.653-7.875a6.653 6.653 0 0 1 1.035-3.848 7.5 7.5 0 0 1 2.745-2.407 6.233 6.233 0 0 1-2.227-2.363 6.411 6.411 0 0 1-.788-3.083 6.9 6.9 0 0 1 .63-2.993A6.235 6.235 0 0 1 3.8-24.8a7.96 7.96 0 0 1 2.655-1.373 11.237 11.237 0 0 1 3.33-.472 11.462 11.462 0 0 1 3.352.472 7.931 7.931 0 0 1 2.681 1.373 6.235 6.235 0 0 1 1.755 2.227 6.9 6.9 0 0 1 .63 2.993 7.029 7.029 0 0 1-.7 3.1 5.409 5.409 0 0 1-2.272 2.34A6.88 6.88 0 0 1 18-11.745a6.98 6.98 0 0 1 .968 3.87 6.6 6.6 0 0 1-.743 3.15 7.346 7.346 0 0 1-1.98 2.363A8.669 8.669 0 0 1 13.343-.9a12.416 12.416 0 0 1-3.555.5 12.254 12.254 0 0 1-3.51-.5 8.928 8.928 0 0 1-2.925-1.463 6.987 6.987 0 0 1-1.98-2.363 6.767 6.767 0 0 1-.72-3.149z" transform="translate(-272 -1398.731) translate(312 1452.731)"/>
    </g>
</svg>
