<svg xmlns="http://www.w3.org/2000/svg" width="80" height="80" viewBox="0 0 80 80">
    <g>
        <g fill="#fff5e6" stroke="#ffe6c1" stroke-width="10px" transform="translate(-43 -1452.731) translate(43 1452.731)">
            <circle cx="40" cy="40" r="40" stroke="none"/>
            <circle cx="40" cy="40" r="35" fill="none"/>
        </g>
        <path fill="#806a3e" d="M-10.71-26.64a11.526 11.526 0 0 1 3.307.45 7.016 7.016 0 0 1 2.588 1.372 6.348 6.348 0 0 1 1.687 2.3 8.016 8.016 0 0 1 .608 3.258 6.692 6.692 0 0 1-.585 2.925 6.488 6.488 0 0 1-1.35 1.935q-.675.585.09 1.17a6.018 6.018 0 0 1 1.755 2.2 7.788 7.788 0 0 1 .72 3.51 6.272 6.272 0 0 1-.675 2.93A6.768 6.768 0 0 1-4.41-2.363 8.5 8.5 0 0 1-7.155-.945a11.043 11.043 0 0 1-3.33.5A11.185 11.185 0 0 1-14.04-.99a8.889 8.889 0 0 1-2.835-1.53 7.622 7.622 0 0 1-1.935-2.34 6.612 6.612 0 0 1-.765-2.97 2.843 2.843 0 0 1 .337-1.575 1.809 1.809 0 0 1 1.463-.81 1.719 1.719 0 0 1 1.665.54 3.6 3.6 0 0 1 .72 1.53A4.389 4.389 0 0 0-13.7-5.4a5.454 5.454 0 0 0 3.352.99 5.236 5.236 0 0 0 2.993-.832A2.6 2.6 0 0 0-6.12-7.515 6.1 6.1 0 0 0-6.3-9a2.982 2.982 0 0 0-.653-1.26 3.441 3.441 0 0 0-1.26-.878 4.98 4.98 0 0 0-1.958-.338h-.495a2.189 2.189 0 0 1-1.62-.585 2.012 2.012 0 0 1-.585-1.485 1.961 1.961 0 0 1 .563-1.485 2.282 2.282 0 0 1 1.642-.54h.315a3.491 3.491 0 0 0 2.5-1.012A3.536 3.536 0 0 0-6.8-19.26a3.045 3.045 0 0 0-1.1-2.565 4.53 4.53 0 0 0-2.858-.855 3.64 3.64 0 0 0-2.385.9 4.163 4.163 0 0 0-1.35 2.7 2.883 2.883 0 0 1-.7 1.53 1.94 1.94 0 0 1-1.823.45 1.616 1.616 0 0 1-1.484-1.058 4.145 4.145 0 0 1-.18-1.687 7.267 7.267 0 0 1 .833-2.9 6.879 6.879 0 0 1 1.778-2.138 7.81 7.81 0 0 1 2.475-1.3 9.323 9.323 0 0 1 2.884-.457zM9.855-4.545a4.43 4.43 0 0 0 1.778-.36 3.293 3.293 0 0 0 1.44-1.305 7.991 7.991 0 0 0 .967-2.59 20.218 20.218 0 0 0 .36-4.207 23.2 23.2 0 0 0-.427-4.95 9.52 9.52 0 0 0-1.08-2.925 3.47 3.47 0 0 0-1.462-1.4 3.865 3.865 0 0 0-1.575-.36 3.714 3.714 0 0 0-1.553.36 3.516 3.516 0 0 0-1.44 1.4 9.52 9.52 0 0 0-1.08 2.925 23.2 23.2 0 0 0-.427 4.95A20.218 20.218 0 0 0 5.715-8.8a7.991 7.991 0 0 0 .967 2.59A3.329 3.329 0 0 0 8.1-4.905a4.272 4.272 0 0 0 1.755.36zm0 4.1a9.012 9.012 0 0 1-3.6-.7 7.025 7.025 0 0 1-2.79-2.205 10.773 10.773 0 0 1-1.8-3.893 22.824 22.824 0 0 1-.63-5.76 25.592 25.592 0 0 1 .7-6.458 12.052 12.052 0 0 1 1.89-4.208 7.025 7.025 0 0 1 2.79-2.272 8.508 8.508 0 0 1 3.443-.7 8.668 8.668 0 0 1 3.465.7 6.985 6.985 0 0 1 2.812 2.272 12.052 12.052 0 0 1 1.89 4.208 25.592 25.592 0 0 1 .7 6.458 22.824 22.824 0 0 1-.63 5.76 10.773 10.773 0 0 1-1.8 3.893 6.988 6.988 0 0 1-2.813 2.205 9.175 9.175 0 0 1-3.627.695z" transform="translate(-43 -1452.731) translate(83 1506.731)"/>
    </g>
</svg>
