<svg xmlns="http://www.w3.org/2000/svg" width="80" height="80" viewBox="0 0 80 80">
    <g>
        <g fill="#fff5e6" stroke="#ffe6c1" stroke-width="10px" transform="translate(-251 -1662) translate(251 1662)">
            <circle cx="40" cy="40" r="40" stroke="none"/>
            <circle cx="40" cy="40" r="35" fill="none"/>
        </g>
        <path fill="#806a3e" d="M-10.035-26.64a11.526 11.526 0 0 1 3.307.45 7.016 7.016 0 0 1 2.588 1.372 6.348 6.348 0 0 1 1.687 2.3 8.016 8.016 0 0 1 .608 3.262 6.692 6.692 0 0 1-.585 2.925A6.488 6.488 0 0 1-3.78-14.4q-.675.585.09 1.17a6.018 6.018 0 0 1 1.755 2.2 7.788 7.788 0 0 1 .72 3.51 6.272 6.272 0 0 1-.675 2.93 6.768 6.768 0 0 1-1.845 2.227A8.5 8.5 0 0 1-6.48-.945a11.043 11.043 0 0 1-3.33.5 11.185 11.185 0 0 1-3.555-.54A8.889 8.889 0 0 1-16.2-2.52a7.622 7.622 0 0 1-1.935-2.34 6.612 6.612 0 0 1-.765-2.97 2.843 2.843 0 0 1 .337-1.575 1.809 1.809 0 0 1 1.463-.81 1.719 1.719 0 0 1 1.665.54 3.6 3.6 0 0 1 .72 1.53A4.389 4.389 0 0 0-13.028-5.4a5.454 5.454 0 0 0 3.352.99 5.236 5.236 0 0 0 2.993-.832 2.6 2.6 0 0 0 1.238-2.273A6.1 6.1 0 0 0-5.625-9a2.982 2.982 0 0 0-.653-1.26 3.441 3.441 0 0 0-1.26-.878 4.98 4.98 0 0 0-1.962-.337h-.49a2.189 2.189 0 0 1-1.62-.585 2.012 2.012 0 0 1-.585-1.485 1.961 1.961 0 0 1 .563-1.485 2.282 2.282 0 0 1 1.642-.54h.315a3.491 3.491 0 0 0 2.5-1.012A3.536 3.536 0 0 0-6.12-19.26a3.045 3.045 0 0 0-1.1-2.565 4.53 4.53 0 0 0-2.858-.855 3.64 3.64 0 0 0-2.385.9 4.163 4.163 0 0 0-1.35 2.7 2.883 2.883 0 0 1-.7 1.53 1.94 1.94 0 0 1-1.823.45 1.616 1.616 0 0 1-1.485-1.058A4.145 4.145 0 0 1-18-19.845a7.267 7.267 0 0 1 .833-2.9 6.879 6.879 0 0 1 1.778-2.138 7.81 7.81 0 0 1 2.475-1.3 9.323 9.323 0 0 1 2.879-.457zm19.8 0a11.526 11.526 0 0 1 3.307.45 7.016 7.016 0 0 1 2.588 1.372 6.348 6.348 0 0 1 1.687 2.3 8.016 8.016 0 0 1 .608 3.262 6.692 6.692 0 0 1-.585 2.925 6.488 6.488 0 0 1-1.35 1.931q-.675.585.09 1.17a6.018 6.018 0 0 1 1.755 2.2 7.788 7.788 0 0 1 .72 3.51 6.272 6.272 0 0 1-.675 2.93 6.768 6.768 0 0 1-1.845 2.227A8.5 8.5 0 0 1 13.32-.945a11.043 11.043 0 0 1-3.33.5A11.185 11.185 0 0 1 6.435-.99 8.889 8.889 0 0 1 3.6-2.52a7.622 7.622 0 0 1-1.935-2.34A6.612 6.612 0 0 1 .9-7.83a2.843 2.843 0 0 1 .338-1.575 1.809 1.809 0 0 1 1.462-.81 1.719 1.719 0 0 1 1.665.54 3.6 3.6 0 0 1 .72 1.53A4.389 4.389 0 0 0 6.773-5.4a5.454 5.454 0 0 0 3.352.99 5.236 5.236 0 0 0 2.993-.832 2.6 2.6 0 0 0 1.238-2.273A6.1 6.1 0 0 0 14.175-9a2.982 2.982 0 0 0-.653-1.26 3.441 3.441 0 0 0-1.26-.878 4.98 4.98 0 0 0-1.958-.338H9.81a2.189 2.189 0 0 1-1.62-.585 2.012 2.012 0 0 1-.585-1.485 1.961 1.961 0 0 1 .562-1.485 2.282 2.282 0 0 1 1.642-.54h.315a3.491 3.491 0 0 0 2.5-1.012 3.536 3.536 0 0 0 1.056-2.677 3.045 3.045 0 0 0-1.1-2.565 4.53 4.53 0 0 0-2.86-.855 3.64 3.64 0 0 0-2.385.9 4.164 4.164 0 0 0-1.35 2.7 2.883 2.883 0 0 1-.7 1.53 1.94 1.94 0 0 1-1.822.45 1.616 1.616 0 0 1-1.483-1.058 4.145 4.145 0 0 1-.18-1.687 7.267 7.267 0 0 1 .833-2.9 6.879 6.879 0 0 1 1.777-2.14 7.81 7.81 0 0 1 2.475-1.3 9.323 9.323 0 0 1 2.88-.455z" transform="translate(-251 -1662) translate(291 1716)"/>
    </g>
</svg>
