<svg xmlns="http://www.w3.org/2000/svg" width="80" height="80" viewBox="0 0 80 80">
    <g>
        <g fill="#fff5e6" stroke="#ffe6c1" stroke-width="10px" transform="translate(-206 -1783.231) translate(206 1783.231)">
            <circle cx="40" cy="40" r="40" stroke="none"/>
            <circle cx="40" cy="40" r="35" fill="none"/>
        </g>
        <path fill="#806a3e" d="M-9.81-26.64a11.526 11.526 0 0 1 3.307.45 7.016 7.016 0 0 1 2.588 1.372 6.348 6.348 0 0 1 1.687 2.3 8.016 8.016 0 0 1 .608 3.258 6.692 6.692 0 0 1-.58 2.925A6.488 6.488 0 0 1-3.555-14.4q-.675.585.09 1.17a6.018 6.018 0 0 1 1.755 2.2 7.788 7.788 0 0 1 .72 3.51 6.272 6.272 0 0 1-.675 2.93A6.768 6.768 0 0 1-3.51-2.363 8.5 8.5 0 0 1-6.255-.945a11.043 11.043 0 0 1-3.33.5A11.185 11.185 0 0 1-13.14-.99a8.889 8.889 0 0 1-2.835-1.53 7.622 7.622 0 0 1-1.935-2.34 6.612 6.612 0 0 1-.765-2.97 2.843 2.843 0 0 1 .337-1.575 1.809 1.809 0 0 1 1.463-.81 1.719 1.719 0 0 1 1.665.54 3.6 3.6 0 0 1 .72 1.53A4.389 4.389 0 0 0-12.8-5.4a5.454 5.454 0 0 0 3.352.99 5.236 5.236 0 0 0 2.993-.832A2.6 2.6 0 0 0-5.22-7.515 6.1 6.1 0 0 0-5.4-9a2.982 2.982 0 0 0-.653-1.26 3.441 3.441 0 0 0-1.26-.878 4.98 4.98 0 0 0-1.958-.338h-.495a2.189 2.189 0 0 1-1.62-.585 2.012 2.012 0 0 1-.585-1.485 1.961 1.961 0 0 1 .563-1.485 2.282 2.282 0 0 1 1.642-.54h.315a3.491 3.491 0 0 0 2.5-1.012 3.536 3.536 0 0 0 1.056-2.677A3.045 3.045 0 0 0-7-21.825a4.53 4.53 0 0 0-2.858-.855 3.64 3.64 0 0 0-2.385.9 4.163 4.163 0 0 0-1.35 2.7 2.883 2.883 0 0 1-.7 1.53 1.94 1.94 0 0 1-1.823.45 1.616 1.616 0 0 1-1.484-1.058 4.145 4.145 0 0 1-.18-1.687 7.267 7.267 0 0 1 .833-2.9 6.879 6.879 0 0 1 1.778-2.138 7.81 7.81 0 0 1 2.475-1.3 9.323 9.323 0 0 1 2.884-.457zM7.65-.54A1.924 1.924 0 0 1 5.9-3.105a43.4 43.4 0 0 1 1.12-4.41q.72-2.34 1.643-4.725t1.957-4.725q1.035-2.34 2.115-4.41a.926.926 0 0 0 .135-.608q-.045-.293-.585-.292H2.7a1.812 1.812 0 0 1-1.4-.585 2.1 2.1 0 0 1-.54-1.485 2.267 2.267 0 0 1 .5-1.44 1.722 1.722 0 0 1 1.44-.63h13.815a2.8 2.8 0 0 1 1.8.54 1.95 1.95 0 0 1 .675 1.62 3.641 3.641 0 0 1-.54 1.8q-1.17 2.115-2.408 4.655T13.7-12.6q-1.1 2.655-2 5.287a44 44 0 0 0-1.4 4.928 3.445 3.445 0 0 1-.8 1.44 1.918 1.918 0 0 1-1.85.405z" transform="translate(-206 -1783.231) translate(246 1837.231)"/>
    </g>
</svg>
