<svg xmlns="http://www.w3.org/2000/svg" width="80" height="80" viewBox="0 0 80 80">
    <g>
        <g fill="#fff5e6" stroke="#ffe6c1" stroke-width="10px" transform="translate(-272 -1854.231) translate(272 1854.231)">
            <circle cx="40" cy="40" r="40" stroke="none"/>
            <circle cx="40" cy="40" r="35" fill="none"/>
        </g>
        <path fill="#806a3e" d="M-10.823-26.64a11.526 11.526 0 0 1 3.307.45 7.016 7.016 0 0 1 2.588 1.372 6.348 6.348 0 0 1 1.687 2.3 8.016 8.016 0 0 1 .608 3.262 6.692 6.692 0 0 1-.585 2.925 6.488 6.488 0 0 1-1.35 1.931q-.675.585.09 1.17a6.018 6.018 0 0 1 1.755 2.2A7.788 7.788 0 0 1-2-7.515a6.272 6.272 0 0 1-.677 2.925 6.768 6.768 0 0 1-1.846 2.227A8.5 8.5 0 0 1-7.268-.945a11.043 11.043 0 0 1-3.33.5 11.185 11.185 0 0 1-3.555-.54 8.889 8.889 0 0 1-2.835-1.53 7.622 7.622 0 0 1-1.935-2.34 6.612 6.612 0 0 1-.765-2.97 2.843 2.843 0 0 1 .337-1.575 1.809 1.809 0 0 1 1.463-.81 1.719 1.719 0 0 1 1.665.54 3.6 3.6 0 0 1 .72 1.53 4.389 4.389 0 0 0 1.688 2.74 5.454 5.454 0 0 0 3.352.99 5.236 5.236 0 0 0 2.993-.833 2.6 2.6 0 0 0 1.237-2.272A6.1 6.1 0 0 0-6.413-9a2.982 2.982 0 0 0-.653-1.26 3.441 3.441 0 0 0-1.26-.878 4.98 4.98 0 0 0-1.958-.338h-.495a2.189 2.189 0 0 1-1.62-.585 2.012 2.012 0 0 1-.585-1.485 1.961 1.961 0 0 1 .563-1.485 2.282 2.282 0 0 1 1.642-.54h.315a3.491 3.491 0 0 0 2.5-1.012 3.536 3.536 0 0 0 1.056-2.677 3.045 3.045 0 0 0-1.1-2.565 4.53 4.53 0 0 0-2.858-.855 3.64 3.64 0 0 0-2.385.9 4.163 4.163 0 0 0-1.35 2.7 2.883 2.883 0 0 1-.7 1.53 1.94 1.94 0 0 1-1.823.45 1.616 1.616 0 0 1-1.485-1.058 4.145 4.145 0 0 1-.18-1.687 7.267 7.267 0 0 1 .833-2.9 6.879 6.879 0 0 1 1.778-2.138 7.81 7.81 0 0 1 2.475-1.3 9.323 9.323 0 0 1 2.88-.457zm20.835 14.535a6.067 6.067 0 0 0-3.465.968 3.353 3.353 0 0 0-1.44 2.993A3.041 3.041 0 0 0 6.5-5.513a6.017 6.017 0 0 0 3.51.968 5.951 5.951 0 0 0 3.578-.968 3.086 3.086 0 0 0 1.327-2.633 3.39 3.39 0 0 0-1.395-2.993 6.017 6.017 0 0 0-3.508-.966zm-4.14-7.335a2.853 2.853 0 0 0 1.215 2.452 4.862 4.862 0 0 0 2.925.878 4.963 4.963 0 0 0 2.948-.878 2.836 2.836 0 0 0 1.24-2.452 2.67 2.67 0 0 0-1.215-2.3 5.03 5.03 0 0 0-2.97-.855 4.952 4.952 0 0 0-2.925.855 2.67 2.67 0 0 0-1.218 2.3zM.877-7.875a6.653 6.653 0 0 1 1.035-3.848 7.5 7.5 0 0 1 2.745-2.407 6.233 6.233 0 0 1-2.227-2.363 6.411 6.411 0 0 1-.788-3.083 6.9 6.9 0 0 1 .63-2.993A6.235 6.235 0 0 1 4.028-24.8a7.96 7.96 0 0 1 2.655-1.373 11.237 11.237 0 0 1 3.33-.472 11.462 11.462 0 0 1 3.352.472 7.931 7.931 0 0 1 2.677 1.373 6.235 6.235 0 0 1 1.758 2.232 6.9 6.9 0 0 1 .63 2.993 7.029 7.029 0 0 1-.7 3.1 5.409 5.409 0 0 1-2.272 2.34 6.88 6.88 0 0 1 2.767 2.385 6.98 6.98 0 0 1 .968 3.87 6.6 6.6 0 0 1-.743 3.15 7.346 7.346 0 0 1-1.98 2.363A8.669 8.669 0 0 1 13.568-.9a12.416 12.416 0 0 1-3.555.5A12.254 12.254 0 0 1 6.5-.9a8.928 8.928 0 0 1-2.923-1.463A6.987 6.987 0 0 1 1.6-4.725a6.767 6.767 0 0 1-.723-3.15z" transform="translate(-272 -1854.231) translate(312 1908.231)"/>
    </g>
</svg>
