<svg xmlns="http://www.w3.org/2000/svg" width="80" height="80" viewBox="0 0 80 80">
    <g>
        <g fill="#fff5e6" stroke="#ffe6c1" stroke-width="10px" transform="translate(-171 -1897.231) translate(171 1897.231)">
            <circle cx="40" cy="40" r="40" stroke="none"/>
            <circle cx="40" cy="40" r="35" fill="none"/>
        </g>
        <path fill="#806a3e" d="M-10.71-26.64a11.526 11.526 0 0 1 3.307.45 7.016 7.016 0 0 1 2.588 1.372 6.348 6.348 0 0 1 1.687 2.3 8.016 8.016 0 0 1 .608 3.258 6.692 6.692 0 0 1-.585 2.925 6.488 6.488 0 0 1-1.35 1.935q-.675.585.09 1.17a6.018 6.018 0 0 1 1.755 2.2 7.788 7.788 0 0 1 .72 3.51 6.272 6.272 0 0 1-.675 2.93A6.768 6.768 0 0 1-4.41-2.363 8.5 8.5 0 0 1-7.155-.945a11.043 11.043 0 0 1-3.33.5A11.185 11.185 0 0 1-14.04-.99a8.889 8.889 0 0 1-2.835-1.53 7.622 7.622 0 0 1-1.935-2.34 6.612 6.612 0 0 1-.765-2.97 2.843 2.843 0 0 1 .337-1.575 1.809 1.809 0 0 1 1.463-.81 1.719 1.719 0 0 1 1.665.54 3.6 3.6 0 0 1 .72 1.53A4.389 4.389 0 0 0-13.7-5.4a5.454 5.454 0 0 0 3.352.99 5.236 5.236 0 0 0 2.993-.832A2.6 2.6 0 0 0-6.12-7.515 6.1 6.1 0 0 0-6.3-9a2.982 2.982 0 0 0-.653-1.26 3.441 3.441 0 0 0-1.26-.878 4.98 4.98 0 0 0-1.958-.338h-.495a2.189 2.189 0 0 1-1.62-.585 2.012 2.012 0 0 1-.585-1.485 1.961 1.961 0 0 1 .563-1.485 2.282 2.282 0 0 1 1.642-.54h.315a3.491 3.491 0 0 0 2.5-1.012A3.536 3.536 0 0 0-6.8-19.26a3.045 3.045 0 0 0-1.1-2.565 4.53 4.53 0 0 0-2.858-.855 3.64 3.64 0 0 0-2.385.9 4.163 4.163 0 0 0-1.35 2.7 2.883 2.883 0 0 1-.7 1.53 1.94 1.94 0 0 1-1.823.45 1.616 1.616 0 0 1-1.484-1.058 4.145 4.145 0 0 1-.18-1.687 7.267 7.267 0 0 1 .833-2.9 6.879 6.879 0 0 1 1.778-2.138 7.81 7.81 0 0 1 2.475-1.3 9.323 9.323 0 0 1 2.884-.457zM5.535-.5a3.626 3.626 0 0 1-1.62-.45 1.694 1.694 0 0 1-.72-1.62 1.921 1.921 0 0 1 .742-1.66 2.545 2.545 0 0 1 1.778-.45A8.45 8.45 0 0 0 8.1-4.838a7.688 7.688 0 0 0 2.2-.832 7.347 7.347 0 0 0 1.89-1.553 7.883 7.883 0 0 0 1.4-2.317q.225-.495.09-.652t-.585.113a6.778 6.778 0 0 1-2.048.855A9.017 9.017 0 0 1 9.09-9a8.157 8.157 0 0 1-3.33-.675 7.954 7.954 0 0 1-2.66-1.89 8.444 8.444 0 0 1-1.733-2.88 10.038 10.038 0 0 1-.563-3.69 10.12 10.12 0 0 1 .653-3.42 7.83 7.83 0 0 1 1.71-2.7 7.653 7.653 0 0 1 2.7-1.755 9.68 9.68 0 0 1 3.577-.63 8.418 8.418 0 0 1 3.735.832 8.287 8.287 0 0 1 2.925 2.385 11.781 11.781 0 0 1 1.912 3.78 16.762 16.762 0 0 1 .7 5.017 19.182 19.182 0 0 1-.922 6.21 12.163 12.163 0 0 1-2.655 4.522 10.644 10.644 0 0 1-4.163 2.7A13.533 13.533 0 0 1 5.535-.5zM9.4-13.1a4.8 4.8 0 0 0 2.88-.945 8.88 8.88 0 0 0 2.07-2.025 7.612 7.612 0 0 0-1.458-4.83A4.4 4.4 0 0 0 9.4-22.5a3.866 3.866 0 0 0-3.082 1.215 4.933 4.933 0 0 0-1.143 3.105 5.217 5.217 0 0 0 1.08 3.69A3.9 3.9 0 0 0 9.4-13.1z" transform="translate(-171 -1897.231) translate(211 1951.231)"/>
    </g>
</svg>
