<svg xmlns="http://www.w3.org/2000/svg" width="80" height="80" viewBox="0 0 80 80">
    <g>
        <g fill="#fff5e6" stroke="#ffe6c1" stroke-width="10px" transform="translate(-43 -1908.231) translate(43 1908.231)">
            <circle cx="40" cy="40" r="40" stroke="none"/>
            <circle cx="40" cy="40" r="35" fill="none"/>
        </g>
        <path fill="#806a3e" d="M-4.815-2.7a2.561 2.561 0 0 1-.518 1.643 2.026 2.026 0 0 1-1.687.652 1.891 1.891 0 0 1-1.687-.7A2.781 2.781 0 0 1-9.18-2.7v-3.15h-8.42a4.069 4.069 0 0 1-2.2-.54 1.874 1.874 0 0 1-.855-1.71 3.112 3.112 0 0 1 .112-.787 4.167 4.167 0 0 1 .382-.923 39.993 39.993 0 0 0 2.722-7.357 75.1 75.1 0 0 0 1.6-7.628 1.654 1.654 0 0 1 .788-1.327 2.233 2.233 0 0 1 1.462-.337 1.886 1.886 0 0 1 1.463.765 2.105 2.105 0 0 1 .382 1.485q-.18 1.71-.518 3.51t-.765 3.6q-.428 1.8-.99 3.51t-1.192 3.24q-.135.54.36.54h5.67V-22.59a3.476 3.476 0 0 1-.765-.855 1.9 1.9 0 0 1-.315-1.035 2.083 2.083 0 0 1 .63-1.53 2.083 2.083 0 0 1 1.53-.63 2.892 2.892 0 0 1 2.2.855 4.294 4.294 0 0 1 1.08 2.025v13.95h2.479a1.794 1.794 0 0 1 1.35.563A1.965 1.965 0 0 1-.45-7.83a1.965 1.965 0 0 1-.54 1.417 1.794 1.794 0 0 1-1.35.563h-2.475zM10.53-4.545a4.43 4.43 0 0 0 1.778-.36 3.293 3.293 0 0 0 1.44-1.305 7.991 7.991 0 0 0 .967-2.59 20.218 20.218 0 0 0 .36-4.207 23.2 23.2 0 0 0-.427-4.95 9.52 9.52 0 0 0-1.08-2.925 3.47 3.47 0 0 0-1.462-1.4 3.865 3.865 0 0 0-1.575-.36 3.714 3.714 0 0 0-1.553.36 3.516 3.516 0 0 0-1.44 1.4 9.52 9.52 0 0 0-1.08 2.925 23.2 23.2 0 0 0-.427 4.95A20.218 20.218 0 0 0 6.39-8.8a7.991 7.991 0 0 0 .968 2.59 3.329 3.329 0 0 0 1.417 1.305 4.272 4.272 0 0 0 1.755.36zm0 4.1a9.012 9.012 0 0 1-3.6-.7 7.025 7.025 0 0 1-2.79-2.208 10.773 10.773 0 0 1-1.8-3.893 22.824 22.824 0 0 1-.63-5.76 25.592 25.592 0 0 1 .7-6.458A12.052 12.052 0 0 1 4.3-23.67a7.025 7.025 0 0 1 2.79-2.272 8.508 8.508 0 0 1 3.443-.7 8.668 8.668 0 0 1 3.465.7 6.985 6.985 0 0 1 2.812 2.272 12.052 12.052 0 0 1 1.89 4.208 25.592 25.592 0 0 1 .7 6.458 22.824 22.824 0 0 1-.63 5.76 10.773 10.773 0 0 1-1.8 3.893 6.988 6.988 0 0 1-2.812 2.205 9.175 9.175 0 0 1-3.628.696z" transform="translate(-43 -1908.231) translate(83 1962.231)"/>
    </g>
</svg>
