<svg xmlns="http://www.w3.org/2000/svg" width="80" height="80" viewBox="0 0 80 80">
    <g>
        <g fill="#fff5e6" stroke="#ffe6c1" stroke-width="10px" transform="translate(-96 -2011.231) translate(96 2011.231)">
            <circle cx="40" cy="40" r="40" stroke="none"/>
            <circle cx="40" cy="40" r="35" fill="none"/>
        </g>
        <path fill="#806a3e" d="M.135-2.7a2.561 2.561 0 0 1-.518 1.642 2.026 2.026 0 0 1-1.687.653 1.891 1.891 0 0 1-1.687-.7A2.781 2.781 0 0 1-4.23-2.7v-3.15h-8.415a4.069 4.069 0 0 1-2.2-.54A1.874 1.874 0 0 1-15.7-8.1a3.112 3.112 0 0 1 .113-.787 4.167 4.167 0 0 1 .382-.923 39.993 39.993 0 0 0 2.722-7.357 75.1 75.1 0 0 0 1.6-7.628 1.654 1.654 0 0 1 .788-1.327 2.233 2.233 0 0 1 1.455-.338 1.886 1.886 0 0 1 1.463.765A2.105 2.105 0 0 1-6.8-24.21q-.18 1.71-.518 3.51t-.765 3.6q-.428 1.8-.99 3.51t-1.192 3.24q-.135.54.36.54h5.67v-12.78A3.476 3.476 0 0 1-5-23.445a1.9 1.9 0 0 1-.31-1.035 2.083 2.083 0 0 1 .63-1.53 2.083 2.083 0 0 1 1.53-.63 2.892 2.892 0 0 1 2.2.855A4.294 4.294 0 0 1 .135-23.76v13.95H2.61a1.794 1.794 0 0 1 1.35.563A1.965 1.965 0 0 1 4.5-7.83a1.965 1.965 0 0 1-.54 1.418 1.794 1.794 0 0 1-1.35.563H.135zM9.5-20.25l-.945.675A2.828 2.828 0 0 1 7-19.058a1.59 1.59 0 0 1-1.372-.7 2.267 2.267 0 0 1-.473-1.035 1.891 1.891 0 0 1 .09-.923 2.252 2.252 0 0 1 .472-.765 6.575 6.575 0 0 1 .583-.559l3.87-2.97a2.5 2.5 0 0 1 1.485-.63 2.051 2.051 0 0 1 1.733.585 2.615 2.615 0 0 1 .427 1.575v21.915a2 2 0 0 1-.675 1.553 2.281 2.281 0 0 1-1.575.608 1.861 1.861 0 0 1-1.552-.652A2.357 2.357 0 0 1 9.5-2.565z" transform="translate(-96 -2011.231) translate(136 2065.231)"/>
    </g>
</svg>
