<svg xmlns="http://www.w3.org/2000/svg" width="80" height="80" viewBox="0 0 80 80">
    <g>
        <g fill="#fff5e6" stroke="#ffe6c1" stroke-width="10px" transform="translate(-206 -2011.231) translate(206 2011.231)">
            <circle cx="40" cy="40" r="40" stroke="none"/>
            <circle cx="40" cy="40" r="35" fill="none"/>
        </g>
        <path fill="#806a3e" d="M-3.915-2.7a2.561 2.561 0 0 1-.518 1.643 2.026 2.026 0 0 1-1.687.652 1.891 1.891 0 0 1-1.687-.7A2.781 2.781 0 0 1-8.28-2.7v-3.15h-8.415a4.069 4.069 0 0 1-2.2-.54 1.874 1.874 0 0 1-.855-1.71 3.112 3.112 0 0 1 .112-.787 4.167 4.167 0 0 1 .382-.923 39.993 39.993 0 0 0 2.722-7.357 75.1 75.1 0 0 0 1.6-7.628 1.654 1.654 0 0 1 .788-1.327 2.233 2.233 0 0 1 1.462-.337 1.886 1.886 0 0 1 1.463.765 2.105 2.105 0 0 1 .382 1.485q-.18 1.71-.518 3.51t-.765 3.6q-.428 1.8-.99 3.51t-1.192 3.24q-.135.54.36.54h5.67V-22.59a3.476 3.476 0 0 1-.765-.855 1.9 1.9 0 0 1-.321-1.035 2.083 2.083 0 0 1 .63-1.53 2.083 2.083 0 0 1 1.53-.63 2.892 2.892 0 0 1 2.2.855 4.294 4.294 0 0 1 1.08 2.025v13.95h2.48a1.794 1.794 0 0 1 1.35.563A1.965 1.965 0 0 1 .45-7.83a1.965 1.965 0 0 1-.54 1.417 1.794 1.794 0 0 1-1.35.563h-2.475zM4.77-.855a2.637 2.637 0 0 1-2.16-.7 2.539 2.539 0 0 1-.54-1.6 6.808 6.808 0 0 1 .855-3.2A15.9 15.9 0 0 1 5.2-9.54a27.494 27.494 0 0 1 3.24-3.037q1.82-1.463 3.76-2.768a4.82 4.82 0 0 0 2.47-4.055 3.1 3.1 0 0 0-.9-2.2 4.325 4.325 0 0 0-3.2-.945 5.22 5.22 0 0 0-1.35.18 3.556 3.556 0 0 0-1.26.63 4.022 4.022 0 0 0-1.035 1.26 7.562 7.562 0 0 0-.72 2.025 1.829 1.829 0 0 1-.855 1.125 2.515 2.515 0 0 1-1.53.27 1.981 1.981 0 0 1-1.193-.562 1.673 1.673 0 0 1-.473-1.238 7.551 7.551 0 0 1 .63-3.06 7.293 7.293 0 0 1 1.761-2.475 8.46 8.46 0 0 1 2.678-1.642 9.119 9.119 0 0 1 3.352-.607 8.746 8.746 0 0 1 6.21 2.025 6.834 6.834 0 0 1 2.16 5.22 11.1 11.1 0 0 1-.135 1.688 7.211 7.211 0 0 1-.54 1.8 7.47 7.47 0 0 1-1.17 1.822 9.065 9.065 0 0 1-2.025 1.71 47.637 47.637 0 0 0-4.253 3.127A19.964 19.964 0 0 0 7.47-5.805a1.341 1.341 0 0 0-.135.18.517.517 0 0 0-.09.292.341.341 0 0 0 .135.27.9.9 0 0 0 .54.112h9.135a1.7 1.7 0 0 1 1.44.585 2.365 2.365 0 0 1 .45 1.485 2.007 2.007 0 0 1-.54 1.485 1.832 1.832 0 0 1-1.35.54z" transform="translate(-206 -2011.231) translate(246 2065.231)"/>
    </g>
</svg>
