<svg xmlns="http://www.w3.org/2000/svg" width="80" height="80" viewBox="0 0 80 80">
    <g>
        <g fill="#fff5e6" stroke="#ffe6c1" stroke-width="10px" transform="translate(-251 -2118.231) translate(251 2118.231)">
            <circle cx="40" cy="40" r="40" stroke="none"/>
            <circle cx="40" cy="40" r="35" fill="none"/>
        </g>
        <path fill="#806a3e" d="M-4.14-2.7a2.561 2.561 0 0 1-.518 1.643 2.026 2.026 0 0 1-1.687.652 1.891 1.891 0 0 1-1.687-.7 2.781 2.781 0 0 1-.473-1.6V-5.85h-8.415a4.069 4.069 0 0 1-2.2-.54 1.874 1.874 0 0 1-.86-1.71 3.112 3.112 0 0 1 .112-.787 4.167 4.167 0 0 1 .382-.923 39.993 39.993 0 0 0 2.722-7.357 75.1 75.1 0 0 0 1.6-7.628 1.654 1.654 0 0 1 .788-1.327 2.233 2.233 0 0 1 1.462-.337 1.886 1.886 0 0 1 1.463.765 2.105 2.105 0 0 1 .382 1.485q-.18 1.71-.518 3.51t-.765 3.6q-.428 1.8-.99 3.51t-1.192 3.24q-.135.54.36.54h5.67V-22.59a3.476 3.476 0 0 1-.765-.855 1.9 1.9 0 0 1-.315-1.035 2.083 2.083 0 0 1 .63-1.53 2.083 2.083 0 0 1 1.53-.63 2.892 2.892 0 0 1 2.2.855A4.294 4.294 0 0 1-4.14-23.76v13.95h2.475a1.794 1.794 0 0 1 1.35.563 1.965 1.965 0 0 1 .54 1.417 1.965 1.965 0 0 1-.54 1.418 1.794 1.794 0 0 1-1.35.563H-4.14zm14.58-23.94a11.526 11.526 0 0 1 3.307.45 7.016 7.016 0 0 1 2.587 1.372 6.348 6.348 0 0 1 1.688 2.3 8.016 8.016 0 0 1 .608 3.262 6.692 6.692 0 0 1-.585 2.925 6.488 6.488 0 0 1-1.35 1.935q-.675.585.09 1.17a6.018 6.018 0 0 1 1.755 2.2 7.788 7.788 0 0 1 .72 3.51 6.272 6.272 0 0 1-.675 2.925 6.768 6.768 0 0 1-1.845 2.228 8.5 8.5 0 0 1-2.745 1.418 11.043 11.043 0 0 1-3.33.5A11.185 11.185 0 0 1 7.11-.99a8.889 8.889 0 0 1-2.835-1.53A7.622 7.622 0 0 1 2.34-4.86a6.612 6.612 0 0 1-.765-2.97 2.843 2.843 0 0 1 .337-1.575 1.809 1.809 0 0 1 1.462-.81 1.719 1.719 0 0 1 1.665.54 3.6 3.6 0 0 1 .72 1.53A4.389 4.389 0 0 0 7.447-5.4a5.454 5.454 0 0 0 3.352.99 5.236 5.236 0 0 0 2.993-.832 2.6 2.6 0 0 0 1.238-2.273A6.1 6.1 0 0 0 14.85-9a2.982 2.982 0 0 0-.653-1.26 3.441 3.441 0 0 0-1.26-.878 4.98 4.98 0 0 0-1.958-.338h-.495a2.189 2.189 0 0 1-1.62-.585 2.012 2.012 0 0 1-.585-1.485 1.961 1.961 0 0 1 .563-1.485 2.282 2.282 0 0 1 1.642-.54h.316a3.491 3.491 0 0 0 2.5-1.012 3.536 3.536 0 0 0 1.057-2.678 3.045 3.045 0 0 0-1.1-2.565 4.53 4.53 0 0 0-2.858-.855 3.64 3.64 0 0 0-2.385.9 4.164 4.164 0 0 0-1.35 2.7 2.883 2.883 0 0 1-.7 1.53 1.94 1.94 0 0 1-1.823.45 1.616 1.616 0 0 1-1.485-1.058 4.145 4.145 0 0 1-.18-1.687 7.267 7.267 0 0 1 .832-2.9 6.879 6.879 0 0 1 1.778-2.138 7.81 7.81 0 0 1 2.475-1.3 9.323 9.323 0 0 1 2.879-.456z" transform="translate(-251 -2118.231) translate(291 2172.231)"/>
    </g>
</svg>
