<svg xmlns="http://www.w3.org/2000/svg" width="80" height="80" viewBox="0 0 80 80">
    <g>
        <g fill="#fff5e6" stroke="#ffe6c1" stroke-width="10px" transform="translate(-131 -2125.231) translate(131 2125.231)">
            <circle cx="40" cy="40" r="40" stroke="none"/>
            <circle cx="40" cy="40" r="35" fill="none"/>
        </g>
        <path fill="#806a3e" d="M-4.815-2.7a2.561 2.561 0 0 1-.518 1.643 2.026 2.026 0 0 1-1.687.652 1.891 1.891 0 0 1-1.687-.7A2.781 2.781 0 0 1-9.18-2.7v-3.15h-8.42a4.069 4.069 0 0 1-2.2-.54 1.874 1.874 0 0 1-.855-1.71 3.112 3.112 0 0 1 .112-.787 4.167 4.167 0 0 1 .382-.923 39.993 39.993 0 0 0 2.722-7.357 75.1 75.1 0 0 0 1.6-7.628 1.654 1.654 0 0 1 .788-1.327 2.233 2.233 0 0 1 1.462-.337 1.886 1.886 0 0 1 1.463.765 2.105 2.105 0 0 1 .382 1.485q-.18 1.71-.518 3.51t-.765 3.6q-.428 1.8-.99 3.51t-1.192 3.24q-.135.54.36.54h5.67V-22.59a3.476 3.476 0 0 1-.765-.855 1.9 1.9 0 0 1-.315-1.035 2.083 2.083 0 0 1 .63-1.53 2.083 2.083 0 0 1 1.53-.63 2.892 2.892 0 0 1 2.2.855 4.294 4.294 0 0 1 1.08 2.025v13.95h2.479a1.794 1.794 0 0 1 1.35.563A1.965 1.965 0 0 1-.45-7.83a1.965 1.965 0 0 1-.54 1.417 1.794 1.794 0 0 1-1.35.563h-2.475zm21.15 0a2.561 2.561 0 0 1-.518 1.643 2.026 2.026 0 0 1-1.687.652 1.891 1.891 0 0 1-1.687-.7 2.781 2.781 0 0 1-.473-1.6V-5.85H3.555a4.069 4.069 0 0 1-2.205-.54A1.874 1.874 0 0 1 .5-8.1a3.112 3.112 0 0 1 .112-.787A4.167 4.167 0 0 1 .99-9.81a39.994 39.994 0 0 0 2.723-7.357A75.1 75.1 0 0 0 5.31-24.8a1.654 1.654 0 0 1 .79-1.322 2.233 2.233 0 0 1 1.46-.338 1.886 1.886 0 0 1 1.463.765 2.105 2.105 0 0 1 .382 1.485q-.18 1.71-.518 3.51t-.765 3.6q-.428 1.8-.99 3.51T5.94-10.35q-.135.54.36.54h5.67v-12.78a3.476 3.476 0 0 1-.765-.855 1.9 1.9 0 0 1-.315-1.035 2.083 2.083 0 0 1 .63-1.53 2.083 2.083 0 0 1 1.53-.63 2.892 2.892 0 0 1 2.2.855 4.294 4.294 0 0 1 1.08 2.025v13.95h2.48a1.794 1.794 0 0 1 1.35.563 1.965 1.965 0 0 1 .54 1.417 1.965 1.965 0 0 1-.54 1.418 1.794 1.794 0 0 1-1.35.563h-2.475z" transform="translate(-131 -2125.231) translate(171 2179.231)"/>
    </g>
</svg>
