<svg xmlns="http://www.w3.org/2000/svg" width="80" height="80" viewBox="0 0 80 80">
    <g>
        <g fill="#fff5e6" stroke="#ffe6c1" stroke-width="10px" transform="translate(-14 -2153.231) translate(14 2153.231)">
            <circle cx="40" cy="40" r="40" stroke="none"/>
            <circle cx="40" cy="40" r="35" fill="none"/>
        </g>
        <path fill="#806a3e" d="M-4.253-2.7a2.561 2.561 0 0 1-.517 1.642 2.026 2.026 0 0 1-1.687.652 1.891 1.891 0 0 1-1.687-.7 2.781 2.781 0 0 1-.473-1.6V-5.85h-8.415a4.069 4.069 0 0 1-2.2-.54 1.874 1.874 0 0 1-.855-1.71 3.112 3.112 0 0 1 .112-.787 4.167 4.167 0 0 1 .375-.923 39.993 39.993 0 0 0 2.722-7.357 75.1 75.1 0 0 0 1.6-7.628 1.654 1.654 0 0 1 .788-1.327 2.233 2.233 0 0 1 1.462-.337 1.886 1.886 0 0 1 1.463.765 2.105 2.105 0 0 1 .382 1.485q-.18 1.71-.518 3.51t-.765 3.6q-.428 1.8-.99 3.51t-1.192 3.24q-.135.54.36.54h5.67V-22.59a3.476 3.476 0 0 1-.765-.855A1.9 1.9 0 0 1-9.7-24.48a2.083 2.083 0 0 1 .63-1.53 2.083 2.083 0 0 1 1.53-.63 2.892 2.892 0 0 1 2.2.855 4.294 4.294 0 0 1 1.08 2.025v13.95h2.475a1.794 1.794 0 0 1 1.35.563A1.965 1.965 0 0 1 .112-7.83a1.965 1.965 0 0 1-.54 1.418 1.794 1.794 0 0 1-1.35.563h-2.475zM10.6-.405a9.422 9.422 0 0 1-5.357-1.417A7.947 7.947 0 0 1 2.227-5.4a2.924 2.924 0 0 1-.27-1.553 1.8 1.8 0 0 1 .99-1.283 2.022 2.022 0 0 1 1.778-.224A2.51 2.51 0 0 1 6.053-7.2 4.294 4.294 0 0 0 8.01-5.062a5.8 5.8 0 0 0 2.587.607A3.981 3.981 0 0 0 13.77-5.67a4.07 4.07 0 0 0 1.057-2.745 6.591 6.591 0 0 0-.18-1.463 3.611 3.611 0 0 0-.72-1.462 4.1 4.1 0 0 0-1.508-1.125 6.08 6.08 0 0 0-2.542-.45 7.762 7.762 0 0 0-2.227.315 7.451 7.451 0 0 1-2.138.315 2.676 2.676 0 0 1-1.98-.72 3.361 3.361 0 0 1-.72-2.43V-24.3a1.911 1.911 0 0 1 .63-1.687 2.915 2.915 0 0 1 1.665-.427h11.025a2.085 2.085 0 0 1 1.508.54 1.961 1.961 0 0 1 .56 1.484 2.115 2.115 0 0 1-.562 1.53 1.994 1.994 0 0 1-1.508.585h-8.5a.438.438 0 0 0-.495.5v4.68q0 .5.157.563a1.04 1.04 0 0 0 .562-.023 13.859 13.859 0 0 1 2.97-.315 9.726 9.726 0 0 1 3.735.653 7.341 7.341 0 0 1 2.632 1.8 7.144 7.144 0 0 1 1.552 2.678 9.945 9.945 0 0 1 .45 3.33 9.468 9.468 0 0 1-.608 3.172A7.213 7.213 0 0 1 16.943-2.7a7.491 7.491 0 0 1-2.678 1.687 10.273 10.273 0 0 1-3.665.608z" transform="translate(-14 -2153.231) translate(54 2207.231)"/>
    </g>
</svg>
