<svg xmlns="http://www.w3.org/2000/svg" width="80" height="80" viewBox="0 0 80 80">
    <g>
        <g fill="#fff5e6" stroke="#ffe6c1" stroke-width="10px" transform="translate(-14 -330) translate(14 330)">
            <circle cx="40" cy="40" r="40" stroke="none"/>
            <circle cx="40" cy="40" r="35" fill="none"/>
        </g>
        <path fill="#806a3e" d="M.022-.405a9.422 9.422 0 0 1-5.355-1.417A7.947 7.947 0 0 1-8.348-5.4a2.924 2.924 0 0 1-.27-1.553 1.8 1.8 0 0 1 .99-1.283A2.022 2.022 0 0 1-5.85-8.46 2.51 2.51 0 0 1-4.523-7.2a4.294 4.294 0 0 0 1.958 2.138 5.8 5.8 0 0 0 2.587.607A3.981 3.981 0 0 0 3.195-5.67a4.07 4.07 0 0 0 1.057-2.745 6.591 6.591 0 0 0-.18-1.463 3.611 3.611 0 0 0-.72-1.462 4.1 4.1 0 0 0-1.508-1.125 6.08 6.08 0 0 0-2.544-.45 7.762 7.762 0 0 0-2.227.315 7.451 7.451 0 0 1-2.138.315 2.676 2.676 0 0 1-1.98-.72 3.361 3.361 0 0 1-.72-2.43V-24.3a1.911 1.911 0 0 1 .63-1.687 2.915 2.915 0 0 1 1.665-.427H5.557a2.085 2.085 0 0 1 1.508.54 1.961 1.961 0 0 1 .563 1.485 2.115 2.115 0 0 1-.562 1.53 1.994 1.994 0 0 1-1.508.585h-8.506a.438.438 0 0 0-.495.5v4.68q0 .5.157.563a1.04 1.04 0 0 0 .562-.023 13.859 13.859 0 0 1 2.97-.315 9.726 9.726 0 0 1 3.735.653 7.341 7.341 0 0 1 2.632 1.8 7.144 7.144 0 0 1 1.552 2.678 9.945 9.945 0 0 1 .45 3.33 9.468 9.468 0 0 1-.605 3.165A7.213 7.213 0 0 1 6.368-2.7 7.491 7.491 0 0 1 3.69-1.013a10.273 10.273 0 0 1-3.668.608z" transform="translate(-14 -330) translate(54 384)"/>
    </g>
</svg>
