<svg xmlns="http://www.w3.org/2000/svg" width="80" height="80" viewBox="0 0 80 80">
    <g>
        <g fill="#fff5e6" stroke="#ffe6c1" stroke-width="10px" transform="translate(-43 -1908.231) translate(43 1908.231)">
            <circle cx="40" cy="40" r="40" stroke="none"/>
            <circle cx="40" cy="40" r="35" fill="none"/>
        </g>
        <path fill="#806a3e" d="M-10.553-.405a9.422 9.422 0 0 1-5.355-1.417A7.947 7.947 0 0 1-18.923-5.4a2.924 2.924 0 0 1-.27-1.553 1.8 1.8 0 0 1 .99-1.283 2.022 2.022 0 0 1 1.778-.225A2.51 2.51 0 0 1-15.1-7.2a4.294 4.294 0 0 0 1.96 2.138 5.8 5.8 0 0 0 2.587.607A3.981 3.981 0 0 0-7.38-5.67a4.07 4.07 0 0 0 1.057-2.745A6.591 6.591 0 0 0-6.5-9.878a3.611 3.611 0 0 0-.72-1.462 4.1 4.1 0 0 0-1.51-1.125 6.08 6.08 0 0 0-2.542-.45 7.762 7.762 0 0 0-2.228.315 7.451 7.451 0 0 1-2.137.315 2.676 2.676 0 0 1-1.98-.72 3.361 3.361 0 0 1-.72-2.43V-24.3a1.911 1.911 0 0 1 .63-1.687 2.915 2.915 0 0 1 1.665-.427h11.024a2.085 2.085 0 0 1 1.508.54 1.961 1.961 0 0 1 .563 1.485 2.115 2.115 0 0 1-.562 1.53 1.994 1.994 0 0 1-1.508.585h-8.505a.438.438 0 0 0-.495.5v4.68q0 .5.158.563a1.04 1.04 0 0 0 .562-.023 13.859 13.859 0 0 1 2.97-.315 9.726 9.726 0 0 1 3.735.653 7.341 7.341 0 0 1 2.632 1.8 7.144 7.144 0 0 1 1.552 2.678 9.945 9.945 0 0 1 .45 3.33 9.468 9.468 0 0 1-.608 3.172A7.213 7.213 0 0 1-4.208-2.7a7.491 7.491 0 0 1-2.677 1.687 10.273 10.273 0 0 1-3.668.608zm20.52-4.14a4.43 4.43 0 0 0 1.778-.36 3.293 3.293 0 0 0 1.44-1.305 7.991 7.991 0 0 0 .968-2.59 20.218 20.218 0 0 0 .36-4.207 23.2 23.2 0 0 0-.427-4.95 9.52 9.52 0 0 0-1.08-2.925 3.47 3.47 0 0 0-1.462-1.4 3.865 3.865 0 0 0-1.575-.36 3.714 3.714 0 0 0-1.553.36 3.516 3.516 0 0 0-1.44 1.4 9.52 9.52 0 0 0-1.08 2.925 23.2 23.2 0 0 0-.427 4.95A20.218 20.218 0 0 0 5.828-8.8 7.991 7.991 0 0 0 6.8-6.21a3.329 3.329 0 0 0 1.413 1.305 4.272 4.272 0 0 0 1.755.36zm0 4.1a9.012 9.012 0 0 1-3.6-.7 7.025 7.025 0 0 1-2.79-2.205 10.773 10.773 0 0 1-1.8-3.893 22.824 22.824 0 0 1-.63-5.76 25.592 25.592 0 0 1 .7-6.458 12.052 12.052 0 0 1 1.89-4.208 7.025 7.025 0 0 1 2.79-2.272 8.508 8.508 0 0 1 3.443-.7 8.668 8.668 0 0 1 3.465.7 6.985 6.985 0 0 1 2.812 2.272 12.052 12.052 0 0 1 1.89 4.208 25.592 25.592 0 0 1 .7 6.458 22.824 22.824 0 0 1-.63 5.76 10.773 10.773 0 0 1-1.8 3.893 6.988 6.988 0 0 1-2.817 2.202 9.175 9.175 0 0 1-3.622.698z" transform="translate(-43 -1908.231) translate(83 1962.231)"/>
    </g>
</svg>
