<svg xmlns="http://www.w3.org/2000/svg" width="80" height="80" viewBox="0 0 80 80">
    <g>
        <g fill="#fff5e6" stroke="#ffe6c1" stroke-width="10px" transform="translate(-96 -2011.231) translate(96 2011.231)">
            <circle cx="40" cy="40" r="40" stroke="none"/>
            <circle cx="40" cy="40" r="35" fill="none"/>
        </g>
        <path fill="#806a3e" d="M-5.6-.405a9.422 9.422 0 0 1-5.355-1.417A7.947 7.947 0 0 1-13.973-5.4a2.924 2.924 0 0 1-.27-1.553 1.8 1.8 0 0 1 .99-1.283 2.022 2.022 0 0 1 1.778-.225A2.51 2.51 0 0 1-10.148-7.2 4.294 4.294 0 0 0-8.19-5.062a5.8 5.8 0 0 0 2.59.607A3.981 3.981 0 0 0-2.43-5.67a4.07 4.07 0 0 0 1.057-2.745 6.591 6.591 0 0 0-.18-1.463 3.611 3.611 0 0 0-.72-1.462 4.1 4.1 0 0 0-1.507-1.125 6.08 6.08 0 0 0-2.542-.45 7.762 7.762 0 0 0-2.228.315 7.451 7.451 0 0 1-2.137.315 2.676 2.676 0 0 1-1.98-.72 3.361 3.361 0 0 1-.72-2.43V-24.3a1.911 1.911 0 0 1 .63-1.687 2.915 2.915 0 0 1 1.665-.427H-.068a2.085 2.085 0 0 1 1.508.54A1.961 1.961 0 0 1 2-24.39a2.115 2.115 0 0 1-.563 1.53 1.994 1.994 0 0 1-1.508.585h-8.502a.438.438 0 0 0-.495.5v4.68q0 .5.158.563a1.04 1.04 0 0 0 .562-.023 13.859 13.859 0 0 1 2.97-.315 9.726 9.726 0 0 1 3.735.653 7.341 7.341 0 0 1 2.632 1.8 7.144 7.144 0 0 1 1.552 2.678 9.945 9.945 0 0 1 .45 3.33 9.468 9.468 0 0 1-.608 3.172A7.213 7.213 0 0 1 .743-2.7a7.491 7.491 0 0 1-2.678 1.687A10.273 10.273 0 0 1-5.6-.405zM8.933-20.25l-.945.675a2.828 2.828 0 0 1-1.553.517 1.59 1.59 0 0 1-1.372-.7 2.267 2.267 0 0 1-.473-1.032 1.891 1.891 0 0 1 .09-.923 2.252 2.252 0 0 1 .472-.765 6.575 6.575 0 0 1 .585-.562l3.87-2.97a2.5 2.5 0 0 1 1.485-.63 2.051 2.051 0 0 1 1.733.585 2.615 2.615 0 0 1 .427 1.575v21.915a2 2 0 0 1-.675 1.553A2.281 2.281 0 0 1 11-.405a1.861 1.861 0 0 1-1.55-.653 2.357 2.357 0 0 1-.517-1.508z" transform="translate(-96 -2011.231) translate(136 2065.231)"/>
    </g>
</svg>
