<svg xmlns="http://www.w3.org/2000/svg" width="80" height="80" viewBox="0 0 80 80">
    <g>
        <g fill="#fff5e6" stroke="#ffe6c1" stroke-width="10px" transform="translate(-206 -2011.231) translate(206 2011.231)">
            <circle cx="40" cy="40" r="40" stroke="none"/>
            <circle cx="40" cy="40" r="35" fill="none"/>
        </g>
        <path fill="#806a3e" d="M-9.653-.405a9.422 9.422 0 0 1-5.355-1.417A7.947 7.947 0 0 1-18.022-5.4a2.924 2.924 0 0 1-.27-1.553 1.8 1.8 0 0 1 .99-1.283 2.022 2.022 0 0 1 1.778-.225A2.51 2.51 0 0 1-14.2-7.2a4.294 4.294 0 0 0 1.96 2.138 5.8 5.8 0 0 0 2.587.607A3.981 3.981 0 0 0-6.48-5.67a4.07 4.07 0 0 0 1.058-2.745A6.591 6.591 0 0 0-5.6-9.878a3.611 3.611 0 0 0-.72-1.462 4.1 4.1 0 0 0-1.51-1.125 6.08 6.08 0 0 0-2.542-.45 7.762 7.762 0 0 0-2.228.315 7.451 7.451 0 0 1-2.137.315 2.676 2.676 0 0 1-1.98-.72 3.361 3.361 0 0 1-.72-2.43V-24.3a1.911 1.911 0 0 1 .63-1.687 2.915 2.915 0 0 1 1.665-.427h11.025a2.085 2.085 0 0 1 1.508.54 1.961 1.961 0 0 1 .563 1.485 2.115 2.115 0 0 1-.562 1.53 1.994 1.994 0 0 1-1.508.585h-8.505a.438.438 0 0 0-.495.5v4.68q0 .5.158.563a1.04 1.04 0 0 0 .562-.023 13.859 13.859 0 0 1 2.97-.315 9.726 9.726 0 0 1 3.735.653 7.341 7.341 0 0 1 2.632 1.8 7.144 7.144 0 0 1 1.552 2.678 9.945 9.945 0 0 1 .45 3.33 9.468 9.468 0 0 1-.608 3.172A7.213 7.213 0 0 1-3.307-2.7a7.491 7.491 0 0 1-2.678 1.687 10.273 10.273 0 0 1-3.668.608zm13.86-.45a2.637 2.637 0 0 1-2.16-.7 2.539 2.539 0 0 1-.54-1.6 6.808 6.808 0 0 1 .855-3.2 15.9 15.9 0 0 1 2.273-3.2 27.494 27.494 0 0 1 3.24-3.037q1.825-1.448 3.758-2.753a4.82 4.82 0 0 0 2.475-4.05 3.1 3.1 0 0 0-.9-2.2 4.325 4.325 0 0 0-3.2-.945 5.22 5.22 0 0 0-1.35.18 3.556 3.556 0 0 0-1.26.63 4.022 4.022 0 0 0-1.035 1.26 7.562 7.562 0 0 0-.72 2.025 1.829 1.829 0 0 1-.855 1.125 2.515 2.515 0 0 1-1.53.27 1.981 1.981 0 0 1-1.193-.562 1.673 1.673 0 0 1-.465-1.243 7.551 7.551 0 0 1 .63-3.06 7.293 7.293 0 0 1 1.753-2.475 8.46 8.46 0 0 1 2.677-1.643 9.119 9.119 0 0 1 3.352-.607 8.746 8.746 0 0 1 6.21 2.025 6.834 6.834 0 0 1 2.16 5.22 11.1 11.1 0 0 1-.135 1.688 7.211 7.211 0 0 1-.54 1.8 7.47 7.47 0 0 1-1.17 1.822 9.065 9.065 0 0 1-2.025 1.71 47.637 47.637 0 0 0-4.252 3.127 19.964 19.964 0 0 0-3.352 3.443 1.341 1.341 0 0 0-.135.18.517.517 0 0 0-.09.292.341.341 0 0 0 .135.27.9.9 0 0 0 .54.112h9.135a1.7 1.7 0 0 1 1.44.585 2.365 2.365 0 0 1 .45 1.485 2.007 2.007 0 0 1-.54 1.485 1.832 1.832 0 0 1-1.35.54z" transform="translate(-206 -2011.231) translate(246 2065.231)"/>
    </g>
</svg>
