<svg xmlns="http://www.w3.org/2000/svg" width="80" height="80" viewBox="0 0 80 80">
    <g>
        <g fill="#fff5e6" stroke="#ffe6c1" stroke-width="10px" transform="translate(-251 -2118.231) translate(251 2118.231)">
            <circle cx="40" cy="40" r="40" stroke="none"/>
            <circle cx="40" cy="40" r="35" fill="none"/>
        </g>
        <path fill="#806a3e" d="M-9.878-.405a9.422 9.422 0 0 1-5.355-1.417A7.947 7.947 0 0 1-18.248-5.4a2.924 2.924 0 0 1-.27-1.553 1.8 1.8 0 0 1 .99-1.283 2.022 2.022 0 0 1 1.778-.224 2.51 2.51 0 0 1 1.327 1.26 4.294 4.294 0 0 0 1.958 2.138 5.8 5.8 0 0 0 2.587.607A3.981 3.981 0 0 0-6.705-5.67a4.07 4.07 0 0 0 1.057-2.745 6.591 6.591 0 0 0-.18-1.463 3.611 3.611 0 0 0-.72-1.462 4.1 4.1 0 0 0-1.508-1.125 6.08 6.08 0 0 0-2.542-.45 7.762 7.762 0 0 0-2.227.315 7.451 7.451 0 0 1-2.137.315 2.676 2.676 0 0 1-1.98-.72 3.361 3.361 0 0 1-.72-2.43V-24.3a1.911 1.911 0 0 1 .63-1.687 2.915 2.915 0 0 1 1.665-.427h11.024a2.085 2.085 0 0 1 1.508.54 1.961 1.961 0 0 1 .563 1.485 2.115 2.115 0 0 1-.562 1.53 1.994 1.994 0 0 1-1.508.585h-8.505a.438.438 0 0 0-.495.5v4.68q0 .5.158.563a1.04 1.04 0 0 0 .562-.023 13.859 13.859 0 0 1 2.97-.315 9.726 9.726 0 0 1 3.735.653 7.341 7.341 0 0 1 2.632 1.8 7.144 7.144 0 0 1 1.552 2.678 9.945 9.945 0 0 1 .45 3.33 9.468 9.468 0 0 1-.607 3.165A7.213 7.213 0 0 1-3.533-2.7 7.491 7.491 0 0 1-6.21-1.013a10.273 10.273 0 0 1-3.668.608zM9.877-26.64a11.526 11.526 0 0 1 3.307.45 7.016 7.016 0 0 1 2.588 1.372 6.348 6.348 0 0 1 1.687 2.3 8.016 8.016 0 0 1 .608 3.262 6.692 6.692 0 0 1-.585 2.925 6.488 6.488 0 0 1-1.35 1.935q-.675.585.09 1.17a6.018 6.018 0 0 1 1.755 2.2 7.788 7.788 0 0 1 .72 3.51 6.272 6.272 0 0 1-.675 2.925 6.768 6.768 0 0 1-1.845 2.227 8.5 8.5 0 0 1-2.745 1.419 11.043 11.043 0 0 1-3.33.5A11.185 11.185 0 0 1 6.547-.99a8.889 8.889 0 0 1-2.835-1.53 7.622 7.622 0 0 1-1.935-2.34 6.612 6.612 0 0 1-.765-2.97 2.843 2.843 0 0 1 .338-1.575 1.809 1.809 0 0 1 1.462-.81 1.719 1.719 0 0 1 1.665.54 3.6 3.6 0 0 1 .72 1.53A4.389 4.389 0 0 0 6.885-5.4a5.454 5.454 0 0 0 3.352.99 5.236 5.236 0 0 0 2.993-.832 2.6 2.6 0 0 0 1.238-2.273A6.1 6.1 0 0 0 14.288-9a2.982 2.982 0 0 0-.653-1.26 3.441 3.441 0 0 0-1.26-.878 4.98 4.98 0 0 0-1.958-.338h-.495A2.189 2.189 0 0 1 8.3-12.06a2.012 2.012 0 0 1-.585-1.485 1.961 1.961 0 0 1 .565-1.485 2.282 2.282 0 0 1 1.642-.54h.315a3.491 3.491 0 0 0 2.5-1.012 3.536 3.536 0 0 0 1.057-2.678 3.045 3.045 0 0 0-1.1-2.565 4.53 4.53 0 0 0-2.858-.855 3.64 3.64 0 0 0-2.385.9 4.164 4.164 0 0 0-1.35 2.7 2.883 2.883 0 0 1-.7 1.53 1.94 1.94 0 0 1-1.822.45 1.616 1.616 0 0 1-1.485-1.058 4.145 4.145 0 0 1-.18-1.687 7.267 7.267 0 0 1 .833-2.9 6.879 6.879 0 0 1 1.778-2.138A7.81 7.81 0 0 1 7-26.19a9.323 9.323 0 0 1 2.877-.45z" transform="translate(-251 -2118.231) translate(291 2172.231)"/>
    </g>
</svg>
