<svg xmlns="http://www.w3.org/2000/svg" width="80" height="80" viewBox="0 0 80 80">
    <g>
        <g fill="#fff5e6" stroke="#ffe6c1" stroke-width="10px" transform="translate(-131 -2125.231) translate(131 2125.231)">
            <circle cx="40" cy="40" r="40" stroke="none"/>
            <circle cx="40" cy="40" r="35" fill="none"/>
        </g>
        <path fill="#806a3e" d="M-10.553-.405a9.422 9.422 0 0 1-5.355-1.417A7.947 7.947 0 0 1-18.923-5.4a2.924 2.924 0 0 1-.27-1.553 1.8 1.8 0 0 1 .99-1.283 2.022 2.022 0 0 1 1.778-.225A2.51 2.51 0 0 1-15.1-7.2a4.294 4.294 0 0 0 1.96 2.138 5.8 5.8 0 0 0 2.587.607A3.981 3.981 0 0 0-7.38-5.67a4.07 4.07 0 0 0 1.057-2.745A6.591 6.591 0 0 0-6.5-9.878a3.611 3.611 0 0 0-.72-1.462 4.1 4.1 0 0 0-1.51-1.125 6.08 6.08 0 0 0-2.542-.45 7.762 7.762 0 0 0-2.228.315 7.451 7.451 0 0 1-2.137.315 2.676 2.676 0 0 1-1.98-.72 3.361 3.361 0 0 1-.72-2.43V-24.3a1.911 1.911 0 0 1 .63-1.687 2.915 2.915 0 0 1 1.665-.427h11.024a2.085 2.085 0 0 1 1.508.54 1.961 1.961 0 0 1 .563 1.485 2.115 2.115 0 0 1-.562 1.53 1.994 1.994 0 0 1-1.508.585h-8.505a.438.438 0 0 0-.495.5v4.68q0 .5.158.563a1.04 1.04 0 0 0 .562-.023 13.859 13.859 0 0 1 2.97-.315 9.726 9.726 0 0 1 3.735.653 7.341 7.341 0 0 1 2.632 1.8 7.144 7.144 0 0 1 1.552 2.678 9.945 9.945 0 0 1 .45 3.33 9.468 9.468 0 0 1-.608 3.172A7.213 7.213 0 0 1-4.208-2.7a7.491 7.491 0 0 1-2.677 1.687 10.273 10.273 0 0 1-3.668.608zM15.773-2.7a2.561 2.561 0 0 1-.518 1.643 2.026 2.026 0 0 1-1.687.652 1.891 1.891 0 0 1-1.687-.7 2.781 2.781 0 0 1-.473-1.6V-5.85H2.993a4.069 4.069 0 0 1-2.205-.54A1.874 1.874 0 0 1-.067-8.1a3.112 3.112 0 0 1 .112-.787 4.167 4.167 0 0 1 .383-.923 39.994 39.994 0 0 0 2.722-7.357 75.1 75.1 0 0 0 1.6-7.628 1.654 1.654 0 0 1 .788-1.327A2.233 2.233 0 0 1 7-26.46a1.886 1.886 0 0 1 1.46.76 2.105 2.105 0 0 1 .382 1.485q-.18 1.71-.518 3.51T7.56-17.1q-.428 1.8-.99 3.51t-1.192 3.24q-.135.54.36.54h5.67v-12.78a3.476 3.476 0 0 1-.765-.855 1.9 1.9 0 0 1-.315-1.035 2.083 2.083 0 0 1 .63-1.53 2.083 2.083 0 0 1 1.53-.63 2.892 2.892 0 0 1 2.2.855 4.294 4.294 0 0 1 1.08 2.025v13.95h2.475a1.794 1.794 0 0 1 1.35.563 1.965 1.965 0 0 1 .54 1.418 1.965 1.965 0 0 1-.54 1.418 1.794 1.794 0 0 1-1.35.563h-2.47z" transform="translate(-131 -2125.231) translate(171 2179.231)"/>
    </g>
</svg>
