<svg xmlns="http://www.w3.org/2000/svg" width="80" height="80" viewBox="0 0 80 80">
    <g>
        <g fill="#fff5e6" stroke="#ffe6c1" stroke-width="10px" transform="translate(-14 -2153.231) translate(14 2153.231)">
            <circle cx="40" cy="40" r="40" stroke="none"/>
            <circle cx="40" cy="40" r="35" fill="none"/>
        </g>
        <path fill="#806a3e" d="M-9.99-.405a9.422 9.422 0 0 1-5.355-1.417A7.947 7.947 0 0 1-18.36-5.4a2.924 2.924 0 0 1-.27-1.553 1.8 1.8 0 0 1 .99-1.283 2.022 2.022 0 0 1 1.778-.225A2.51 2.51 0 0 1-14.535-7.2a4.294 4.294 0 0 0 1.958 2.138 5.8 5.8 0 0 0 2.587.607A3.981 3.981 0 0 0-6.818-5.67 4.07 4.07 0 0 0-5.76-8.415a6.591 6.591 0 0 0-.18-1.463 3.611 3.611 0 0 0-.72-1.462 4.1 4.1 0 0 0-1.508-1.125 6.08 6.08 0 0 0-2.542-.45 7.762 7.762 0 0 0-2.227.315 7.451 7.451 0 0 1-2.137.315 2.676 2.676 0 0 1-1.98-.72 3.361 3.361 0 0 1-.72-2.43V-24.3a1.911 1.911 0 0 1 .63-1.687 2.915 2.915 0 0 1 1.665-.427h11.024a2.085 2.085 0 0 1 1.508.54 1.961 1.961 0 0 1 .563 1.485 2.115 2.115 0 0 1-.562 1.53 1.994 1.994 0 0 1-1.508.585h-8.506a.438.438 0 0 0-.495.5v4.68q0 .5.158.563a1.04 1.04 0 0 0 .562-.023 13.859 13.859 0 0 1 2.97-.315 9.726 9.726 0 0 1 3.735.653 7.341 7.341 0 0 1 2.632 1.8 7.144 7.144 0 0 1 1.552 2.678 9.945 9.945 0 0 1 .45 3.33A9.468 9.468 0 0 1-2-5.243 7.213 7.213 0 0 1-3.645-2.7a7.491 7.491 0 0 1-2.678 1.687 10.273 10.273 0 0 1-3.667.608zm20.025 0A9.422 9.422 0 0 1 4.68-1.822 7.947 7.947 0 0 1 1.665-5.4 2.924 2.924 0 0 1 1.4-6.953a1.8 1.8 0 0 1 .99-1.283 2.022 2.022 0 0 1 1.772-.224A2.51 2.51 0 0 1 5.49-7.2a4.294 4.294 0 0 0 1.958 2.138 5.8 5.8 0 0 0 2.587.607 3.981 3.981 0 0 0 3.173-1.215 4.07 4.07 0 0 0 1.057-2.745 6.591 6.591 0 0 0-.18-1.463 3.611 3.611 0 0 0-.72-1.462 4.1 4.1 0 0 0-1.508-1.125 6.08 6.08 0 0 0-2.542-.45 7.762 7.762 0 0 0-2.227.315 7.451 7.451 0 0 1-2.138.315 2.676 2.676 0 0 1-1.98-.72 3.361 3.361 0 0 1-.72-2.43V-24.3a1.911 1.911 0 0 1 .63-1.687 2.915 2.915 0 0 1 1.665-.427H15.57a2.085 2.085 0 0 1 1.508.54 1.961 1.961 0 0 1 .563 1.485 2.115 2.115 0 0 1-.562 1.53 1.994 1.994 0 0 1-1.508.585H7.065a.438.438 0 0 0-.495.5v4.68q0 .5.157.563a1.04 1.04 0 0 0 .562-.023 13.859 13.859 0 0 1 2.97-.315 9.726 9.726 0 0 1 3.741.647 7.341 7.341 0 0 1 2.632 1.8 7.144 7.144 0 0 1 1.552 2.678 9.945 9.945 0 0 1 .45 3.33 9.468 9.468 0 0 1-.608 3.172A7.213 7.213 0 0 1 16.38-2.7a7.491 7.491 0 0 1-2.68 1.687 10.273 10.273 0 0 1-3.665.608z" transform="translate(-14 -2153.231) translate(54 2207.231)"/>
    </g>
</svg>
