<svg xmlns="http://www.w3.org/2000/svg" width="80" height="80" viewBox="0 0 80 80">
    <g>
        <g fill="#fff5e6" stroke="#ffe6c1" stroke-width="10px" transform="translate(-206 -2239.231) translate(206 2239.231)">
            <circle cx="40" cy="40" r="40" stroke="none"/>
            <circle cx="40" cy="40" r="35" fill="none"/>
        </g>
        <path fill="#806a3e" d="M-9.653-.405a9.422 9.422 0 0 1-5.355-1.417A7.947 7.947 0 0 1-18.022-5.4a2.924 2.924 0 0 1-.27-1.553 1.8 1.8 0 0 1 .99-1.283 2.022 2.022 0 0 1 1.778-.225A2.51 2.51 0 0 1-14.2-7.2a4.294 4.294 0 0 0 1.96 2.138 5.8 5.8 0 0 0 2.587.607A3.981 3.981 0 0 0-6.48-5.67a4.07 4.07 0 0 0 1.058-2.745A6.591 6.591 0 0 0-5.6-9.878a3.611 3.611 0 0 0-.72-1.462 4.1 4.1 0 0 0-1.51-1.125 6.08 6.08 0 0 0-2.542-.45 7.762 7.762 0 0 0-2.228.315 7.451 7.451 0 0 1-2.137.315 2.676 2.676 0 0 1-1.98-.72 3.361 3.361 0 0 1-.72-2.43V-24.3a1.911 1.911 0 0 1 .63-1.687 2.915 2.915 0 0 1 1.665-.427h11.025a2.085 2.085 0 0 1 1.508.54 1.961 1.961 0 0 1 .563 1.485 2.115 2.115 0 0 1-.562 1.53 1.994 1.994 0 0 1-1.508.585h-8.505a.438.438 0 0 0-.495.5v4.68q0 .5.158.563a1.04 1.04 0 0 0 .562-.023 13.859 13.859 0 0 1 2.97-.315 9.726 9.726 0 0 1 3.735.653 7.341 7.341 0 0 1 2.632 1.8 7.144 7.144 0 0 1 1.552 2.678 9.945 9.945 0 0 1 .45 3.33 9.468 9.468 0 0 1-.608 3.172A7.213 7.213 0 0 1-3.307-2.7a7.491 7.491 0 0 1-2.678 1.687 10.273 10.273 0 0 1-3.668.608zM7.763-.54a1.924 1.924 0 0 1-1.755-2.565 43.4 43.4 0 0 1 1.125-4.41q.72-2.34 1.643-4.725t1.957-4.725q1.035-2.34 2.115-4.41a.926.926 0 0 0 .135-.608q-.045-.293-.585-.292H2.813a1.812 1.812 0 0 1-1.4-.585 2.1 2.1 0 0 1-.54-1.485 2.267 2.267 0 0 1 .5-1.44 1.722 1.722 0 0 1 1.44-.63h13.815a2.8 2.8 0 0 1 1.8.54 1.95 1.95 0 0 1 .675 1.62 3.641 3.641 0 0 1-.54 1.8q-1.17 2.115-2.408 4.657t-2.34 5.2q-1.1 2.655-2 5.287a44 44 0 0 0-1.4 4.928 3.445 3.445 0 0 1-.81 1.44 1.918 1.918 0 0 1-1.842.403z" transform="translate(-206 -2239.231) translate(246 2293.231)"/>
    </g>
</svg>
