<svg xmlns="http://www.w3.org/2000/svg" width="80" height="80" viewBox="0 0 80 80">
    <g>
        <g fill="#fff5e6" stroke="#ffe6c1" stroke-width="10px" transform="translate(-272 -2310) translate(272 2310)">
            <circle cx="40" cy="40" r="40" stroke="none"/>
            <circle cx="40" cy="40" r="35" fill="none"/>
        </g>
        <path fill="#806a3e" d="M-10.665-.405a9.422 9.422 0 0 1-5.355-1.417A7.947 7.947 0 0 1-19.035-5.4a2.924 2.924 0 0 1-.27-1.553 1.8 1.8 0 0 1 .99-1.283 2.022 2.022 0 0 1 1.778-.225A2.51 2.51 0 0 1-15.21-7.2a4.294 4.294 0 0 0 1.958 2.138 5.8 5.8 0 0 0 2.587.607A3.981 3.981 0 0 0-7.493-5.67a4.07 4.07 0 0 0 1.058-2.745 6.591 6.591 0 0 0-.18-1.463 3.611 3.611 0 0 0-.72-1.462 4.1 4.1 0 0 0-1.508-1.125 6.08 6.08 0 0 0-2.542-.45 7.762 7.762 0 0 0-2.227.315 7.451 7.451 0 0 1-2.137.315 2.676 2.676 0 0 1-1.98-.72 3.361 3.361 0 0 1-.72-2.43V-24.3a1.911 1.911 0 0 1 .63-1.687 2.915 2.915 0 0 1 1.665-.427H-5.13a2.085 2.085 0 0 1 1.508.54 1.961 1.961 0 0 1 .562 1.484 2.115 2.115 0 0 1-.562 1.53 1.994 1.994 0 0 1-1.508.585h-8.505a.438.438 0 0 0-.495.5v4.68q0 .5.158.563a1.04 1.04 0 0 0 .562-.023 13.859 13.859 0 0 1 2.97-.315 9.726 9.726 0 0 1 3.735.653 7.341 7.341 0 0 1 2.632 1.8 7.144 7.144 0 0 1 1.553 2.672 9.945 9.945 0 0 1 .45 3.33 9.468 9.468 0 0 1-.608 3.172A7.213 7.213 0 0 1-4.32-2.7 7.491 7.491 0 0 1-7-1.013a10.273 10.273 0 0 1-3.665.608zm20.79-11.7a6.067 6.067 0 0 0-3.465.968 3.353 3.353 0 0 0-1.44 2.992 3.041 3.041 0 0 0 1.395 2.632 6.017 6.017 0 0 0 3.51.968 5.951 5.951 0 0 0 3.575-.968 3.086 3.086 0 0 0 1.33-2.632 3.39 3.39 0 0 0-1.395-2.993 6.017 6.017 0 0 0-3.51-.967zm-4.14-7.335A2.853 2.853 0 0 0 7.2-16.988a4.862 4.862 0 0 0 2.925.878 4.963 4.963 0 0 0 2.948-.878 2.836 2.836 0 0 0 1.237-2.452 2.67 2.67 0 0 0-1.215-2.3 5.03 5.03 0 0 0-2.97-.855 4.952 4.952 0 0 0-2.925.855 2.67 2.67 0 0 0-1.215 2.3zM.99-7.875a6.653 6.653 0 0 1 1.035-3.848A7.5 7.5 0 0 1 4.77-14.13a6.233 6.233 0 0 1-2.227-2.363 6.411 6.411 0 0 1-.788-3.083 6.9 6.9 0 0 1 .63-2.993A6.235 6.235 0 0 1 4.14-24.8a7.96 7.96 0 0 1 2.66-1.368 11.237 11.237 0 0 1 3.33-.472 11.462 11.462 0 0 1 3.352.472 7.931 7.931 0 0 1 2.673 1.368 6.235 6.235 0 0 1 1.755 2.227 6.9 6.9 0 0 1 .63 2.993 7.029 7.029 0 0 1-.7 3.1 5.409 5.409 0 0 1-2.272 2.34 6.88 6.88 0 0 1 2.767 2.385 6.98 6.98 0 0 1 .968 3.87 6.6 6.6 0 0 1-.743 3.15 7.346 7.346 0 0 1-1.98 2.363A8.669 8.669 0 0 1 13.68-.9a12.416 12.416 0 0 1-3.555.5 12.254 12.254 0 0 1-3.51-.5A8.928 8.928 0 0 1 3.69-2.363a6.987 6.987 0 0 1-1.98-2.362 6.767 6.767 0 0 1-.72-3.15z" transform="translate(-272 -2310) translate(312 2364)"/>
    </g>
</svg>
