<svg xmlns="http://www.w3.org/2000/svg" width="80" height="80" viewBox="0 0 80 80">
    <g>
        <g fill="#fff5e6" stroke="#ffe6c1" stroke-width="10px" transform="translate(-96 -416) translate(96 416)">
            <circle cx="40" cy="40" r="40" stroke="none"/>
            <circle cx="40" cy="40" r="35" fill="none"/>
        </g>
        <path fill="#806a3e" d="M4.32-26.6a3.626 3.626 0 0 1 1.62.45 1.694 1.694 0 0 1 .72 1.62 1.921 1.921 0 0 1-.743 1.665 2.545 2.545 0 0 1-1.777.45 10.526 10.526 0 0 0-2.385.18 7.224 7.224 0 0 0-2.205.81 7.347 7.347 0 0 0-1.89 1.552 7.883 7.883 0 0 0-1.395 2.323q-.225.5-.09.653t.585-.112a6.778 6.778 0 0 1 2.048-.855 9.017 9.017 0 0 1 1.957-.226 8.158 8.158 0 0 1 3.33.675 7.718 7.718 0 0 1 2.633 1.89 8.944 8.944 0 0 1 1.732 2.88 9.732 9.732 0 0 1 .585 3.69 10.119 10.119 0 0 1-.653 3.42 7.666 7.666 0 0 1-1.733 2.7A7.933 7.933 0 0 1 3.96-1.08 9.5 9.5 0 0 1 .4-.45a8.418 8.418 0 0 1-3.73-.833 8.287 8.287 0 0 1-2.925-2.385 11.781 11.781 0 0 1-1.912-3.78 16.762 16.762 0 0 1-.7-5.017 19.182 19.182 0 0 1 .923-6.21A12.163 12.163 0 0 1-5.288-23.2a10.644 10.644 0 0 1 4.163-2.7 13.533 13.533 0 0 1 5.445-.7zM.45-14a4.8 4.8 0 0 0-2.88.945 8.88 8.88 0 0 0-2.07 2.03 7.612 7.612 0 0 0 1.462 4.838A4.4 4.4 0 0 0 .45-4.59a3.866 3.866 0 0 0 3.083-1.215A4.933 4.933 0 0 0 4.68-8.91 5.217 5.217 0 0 0 3.6-12.6 3.9 3.9 0 0 0 .45-14z" transform="translate(-96 -416) translate(136 470)"/>
    </g>
</svg>
