<svg xmlns="http://www.w3.org/2000/svg" width="80" height="80" viewBox="0 0 80 80">
    <g>
        <g fill="#fff5e6" stroke="#ffe6c1" stroke-width="10px" transform="translate(-171 -2808.962) translate(171 2808.962)">
            <circle cx="40" cy="40" r="40" stroke="none"/>
            <circle cx="40" cy="40" r="35" fill="none"/>
        </g>
        <path fill="#806a3e" d="M-6.255-26.6a3.626 3.626 0 0 1 1.62.45 1.694 1.694 0 0 1 .72 1.62 1.921 1.921 0 0 1-.743 1.665 2.545 2.545 0 0 1-1.777.45 10.526 10.526 0 0 0-2.385.18 7.224 7.224 0 0 0-2.205.81 7.347 7.347 0 0 0-1.89 1.552 7.883 7.883 0 0 0-1.4 2.317q-.225.5-.09.653t.585-.112a6.778 6.778 0 0 1 2.048-.855 9.017 9.017 0 0 1 1.962-.22 8.158 8.158 0 0 1 3.33.675 7.718 7.718 0 0 1 2.633 1.89 8.944 8.944 0 0 1 1.732 2.88 9.732 9.732 0 0 1 .585 3.69 10.119 10.119 0 0 1-.653 3.42 7.666 7.666 0 0 1-1.733 2.7 7.933 7.933 0 0 1-2.7 1.755 9.5 9.5 0 0 1-3.555.63 8.418 8.418 0 0 1-3.735-.833 8.287 8.287 0 0 1-2.924-2.385 11.781 11.781 0 0 1-1.912-3.78 16.762 16.762 0 0 1-.7-5.017 19.182 19.182 0 0 1 .922-6.21 12.163 12.163 0 0 1 2.657-4.525 10.644 10.644 0 0 1 4.163-2.7 13.533 13.533 0 0 1 5.445-.7zm-3.87 12.6a4.8 4.8 0 0 0-2.88.945 8.88 8.88 0 0 0-2.07 2.025 7.612 7.612 0 0 0 1.462 4.838 4.4 4.4 0 0 0 3.488 1.6 3.866 3.866 0 0 0 3.082-1.213A4.933 4.933 0 0 0-5.9-8.91a5.217 5.217 0 0 0-1.08-3.69 3.9 3.9 0 0 0-3.145-1.4zM6.21-.5a3.626 3.626 0 0 1-1.62-.45 1.694 1.694 0 0 1-.72-1.62 1.921 1.921 0 0 1 .743-1.66 2.545 2.545 0 0 1 1.777-.45 8.45 8.45 0 0 0 2.385-.157 7.688 7.688 0 0 0 2.2-.832 7.347 7.347 0 0 0 1.89-1.553 7.883 7.883 0 0 0 1.4-2.318q.225-.495.09-.652t-.585.113a6.778 6.778 0 0 1-2.048.855A9.017 9.017 0 0 1 9.765-9a8.157 8.157 0 0 1-3.33-.675 7.954 7.954 0 0 1-2.655-1.89 8.444 8.444 0 0 1-1.733-2.88 10.038 10.038 0 0 1-.563-3.69 10.12 10.12 0 0 1 .653-3.42 7.83 7.83 0 0 1 1.71-2.7 7.653 7.653 0 0 1 2.7-1.755 9.68 9.68 0 0 1 3.577-.63 8.418 8.418 0 0 1 3.735.832 8.287 8.287 0 0 1 2.925 2.385 11.781 11.781 0 0 1 1.912 3.78 16.762 16.762 0 0 1 .7 5.017 19.182 19.182 0 0 1-.922 6.21 12.163 12.163 0 0 1-2.655 4.522 10.644 10.644 0 0 1-4.163 2.7A13.533 13.533 0 0 1 6.21-.5zm3.87-12.6a4.8 4.8 0 0 0 2.88-.945 8.88 8.88 0 0 0 2.07-2.025 7.612 7.612 0 0 0-1.462-4.83 4.4 4.4 0 0 0-3.488-1.6A3.866 3.866 0 0 0 7-21.285a4.933 4.933 0 0 0-1.15 3.105 5.217 5.217 0 0 0 1.08 3.69 3.9 3.9 0 0 0 3.15 1.39z" transform="translate(-171 -2808.962) translate(211 2862.962)"/>
    </g>
</svg>
