<svg xmlns="http://www.w3.org/2000/svg" width="80" height="80" viewBox="0 0 80 80">
    <g>
        <g fill="#fff5e6" stroke="#ffe6c1" stroke-width="10px" transform="translate(-206 -416) translate(206 416)">
            <circle cx="40" cy="40" r="40" stroke="none"/>
            <circle cx="40" cy="40" r="35" fill="none"/>
        </g>
        <path fill="#806a3e" d="M-2.25-.54a1.924 1.924 0 0 1-1.755-2.565 43.4 43.4 0 0 1 1.125-4.41q.72-2.34 1.643-4.725T.72-16.965q1.035-2.34 2.115-4.41a.926.926 0 0 0 .135-.608q-.045-.293-.585-.292H-7.2a1.812 1.812 0 0 1-1.4-.585 2.1 2.1 0 0 1-.54-1.485 2.267 2.267 0 0 1 .495-1.44 1.722 1.722 0 0 1 1.44-.63h13.82a2.8 2.8 0 0 1 1.8.54 1.95 1.95 0 0 1 .675 1.62 3.641 3.641 0 0 1-.54 1.8Q7.38-20.34 6.142-17.8T3.8-12.6q-1.1 2.655-2 5.287A44 44 0 0 0 .4-2.385a3.445 3.445 0 0 1-.8 1.44 1.918 1.918 0 0 1-1.85.405z" transform="translate(-206 -416) translate(246 470)"/>
    </g>
</svg>
