<svg xmlns="http://www.w3.org/2000/svg" width="80" height="80" viewBox="0 0 80 80">
    <g>
        <g fill="#fff5e6" stroke="#ffe6c1" stroke-width="10px" transform="translate(-96 -2922.962) translate(96 2922.962)">
            <circle cx="40" cy="40" r="40" stroke="none"/>
            <circle cx="40" cy="40" r="35" fill="none"/>
        </g>
        <path fill="#806a3e" d="M-7.875-.54A1.924 1.924 0 0 1-9.63-3.105a43.4 43.4 0 0 1 1.13-4.41q.72-2.34 1.642-4.725t1.958-4.725q1.035-2.34 2.115-4.41a.926.926 0 0 0 .135-.608q-.045-.293-.585-.292h-9.585a1.812 1.812 0 0 1-1.4-.585 2.1 2.1 0 0 1-.54-1.485 2.267 2.267 0 0 1 .495-1.44 1.722 1.722 0 0 1 1.44-.63H.99a2.8 2.8 0 0 1 1.8.54 1.95 1.95 0 0 1 .675 1.62 3.641 3.641 0 0 1-.54 1.8Q1.755-20.34.517-17.8t-2.34 5.2q-1.1 2.655-2 5.287a44 44 0 0 0-1.4 4.928 3.445 3.445 0 0 1-.81 1.44 1.918 1.918 0 0 1-1.842.405zM8.6-20.25l-.945.675a2.828 2.828 0 0 1-1.553.517 1.59 1.59 0 0 1-1.372-.7 2.267 2.267 0 0 1-.473-1.035 1.891 1.891 0 0 1 .09-.923 2.252 2.252 0 0 1 .472-.765 6.575 6.575 0 0 1 .581-.559l3.87-2.97a2.5 2.5 0 0 1 1.485-.63 2.051 2.051 0 0 1 1.733.585 2.615 2.615 0 0 1 .427 1.575v21.915a2 2 0 0 1-.675 1.553 2.281 2.281 0 0 1-1.575.608 1.861 1.861 0 0 1-1.552-.652A2.357 2.357 0 0 1 8.6-2.565z" transform="translate(-96 -2922.962) translate(136 2976.962)"/>
    </g>
</svg>
