<svg xmlns="http://www.w3.org/2000/svg" width="80" height="80" viewBox="0 0 80 80">
    <g>
        <g fill="#fff5e6" stroke="#ffe6c1" stroke-width="10px" transform="translate(-131 -3036.703) translate(131 3036.703)">
            <circle cx="40" cy="40" r="40" stroke="none"/>
            <circle cx="40" cy="40" r="35" fill="none"/>
        </g>
        <path fill="#806a3e" d="M-12.825-.54a1.924 1.924 0 0 1-1.755-2.565 43.4 43.4 0 0 1 1.125-4.41q.72-2.34 1.643-4.725t1.957-4.725q1.035-2.34 2.115-4.41a.926.926 0 0 0 .135-.608q-.045-.293-.585-.292h-9.585a1.812 1.812 0 0 1-1.4-.585 2.1 2.1 0 0 1-.54-1.485 2.267 2.267 0 0 1 .495-1.44 1.722 1.722 0 0 1 1.44-.63h13.82a2.8 2.8 0 0 1 1.8.54 1.95 1.95 0 0 1 .675 1.62 3.641 3.641 0 0 1-.54 1.8q-1.17 2.115-2.407 4.655t-2.34 5.2q-1.1 2.655-2 5.287a44 44 0 0 0-1.4 4.928 3.445 3.445 0 0 1-.81 1.44 1.918 1.918 0 0 1-1.843.405zm28.26-2.16a2.561 2.561 0 0 1-.518 1.643 2.026 2.026 0 0 1-1.687.652 1.891 1.891 0 0 1-1.687-.7 2.781 2.781 0 0 1-.473-1.6V-5.85H2.655A4.069 4.069 0 0 1 .45-6.39 1.874 1.874 0 0 1-.4-8.1a3.112 3.112 0 0 1 .112-.787A4.167 4.167 0 0 1 .09-9.81a39.994 39.994 0 0 0 2.723-7.357A75.1 75.1 0 0 0 4.41-24.8a1.654 1.654 0 0 1 .79-1.322 2.233 2.233 0 0 1 1.46-.338 1.886 1.886 0 0 1 1.463.765 2.105 2.105 0 0 1 .382 1.485q-.18 1.71-.518 3.51t-.765 3.6q-.428 1.8-.99 3.51T5.04-10.35q-.135.54.36.54h5.67v-12.78a3.476 3.476 0 0 1-.765-.855 1.9 1.9 0 0 1-.315-1.035 2.083 2.083 0 0 1 .63-1.53 2.083 2.083 0 0 1 1.53-.63 2.892 2.892 0 0 1 2.2.855 4.294 4.294 0 0 1 1.08 2.025v13.95h2.48a1.794 1.794 0 0 1 1.35.563 1.965 1.965 0 0 1 .54 1.417 1.965 1.965 0 0 1-.54 1.418 1.794 1.794 0 0 1-1.35.563h-2.475z" transform="translate(-131 -3036.703) translate(171 3090.703)"/>
    </g>
</svg>
