<svg xmlns="http://www.w3.org/2000/svg" width="80" height="80" viewBox="0 0 80 80">
    <g>
        <g fill="#fff5e6" stroke="#ffe6c1" stroke-width="10px" transform="translate(-206 -3150.703) translate(206 3150.703)">
            <circle cx="40" cy="40" r="40" stroke="none"/>
            <circle cx="40" cy="40" r="35" fill="none"/>
        </g>
        <path fill="#806a3e" d="M-11.925-.54a1.924 1.924 0 0 1-1.755-2.565 43.4 43.4 0 0 1 1.125-4.41q.72-2.34 1.643-4.725t1.957-4.725q1.035-2.34 2.115-4.41a.926.926 0 0 0 .135-.608q-.045-.293-.585-.292h-9.585a1.812 1.812 0 0 1-1.4-.585 2.1 2.1 0 0 1-.54-1.485 2.267 2.267 0 0 1 .495-1.44 1.722 1.722 0 0 1 1.44-.63h13.82a2.8 2.8 0 0 1 1.8.54 1.95 1.95 0 0 1 .675 1.62 3.641 3.641 0 0 1-.54 1.8Q-2.3-20.34-3.533-17.8t-2.34 5.2q-1.1 2.655-2 5.287a44 44 0 0 0-1.4 4.928 3.445 3.445 0 0 1-.81 1.44 1.918 1.918 0 0 1-1.842.405zm19.35 0A1.924 1.924 0 0 1 5.67-3.105a43.4 43.4 0 0 1 1.13-4.41q.72-2.34 1.643-4.725t1.957-4.725q1.035-2.34 2.115-4.41a.926.926 0 0 0 .135-.608q-.045-.293-.585-.292h-9.59a1.812 1.812 0 0 1-1.4-.585 2.1 2.1 0 0 1-.54-1.485 2.267 2.267 0 0 1 .5-1.44 1.722 1.722 0 0 1 1.44-.63H16.29a2.8 2.8 0 0 1 1.8.54 1.95 1.95 0 0 1 .675 1.62 3.641 3.641 0 0 1-.54 1.8q-1.17 2.115-2.408 4.657t-2.34 5.2q-1.1 2.655-2 5.287a44 44 0 0 0-1.4 4.928 3.445 3.445 0 0 1-.81 1.44 1.918 1.918 0 0 1-1.842.403z" transform="translate(-206 -3150.703) translate(246 3204.703)"/>
    </g>
</svg>
