<svg xmlns="http://www.w3.org/2000/svg" width="80" height="80" viewBox="0 0 80 80">
    <g>
        <g fill="#fff5e6" stroke="#ffe6c1" stroke-width="10px" transform="translate(-272 -3221.704) translate(272 3221.704)">
            <circle cx="40" cy="40" r="40" stroke="none"/>
            <circle cx="40" cy="40" r="35" fill="none"/>
        </g>
        <path fill="#806a3e" d="M-12.937-.54a1.924 1.924 0 0 1-1.755-2.565 43.4 43.4 0 0 1 1.125-4.41q.72-2.34 1.643-4.725t1.957-4.725q1.035-2.34 2.115-4.41a.926.926 0 0 0 .135-.608q-.045-.293-.585-.292h-9.585a1.812 1.812 0 0 1-1.4-.585 2.1 2.1 0 0 1-.54-1.485 2.267 2.267 0 0 1 .495-1.44 1.722 1.722 0 0 1 1.44-.63h13.82a2.8 2.8 0 0 1 1.8.54 1.95 1.95 0 0 1 .675 1.62 3.641 3.641 0 0 1-.54 1.8q-1.17 2.115-2.408 4.655t-2.34 5.2q-1.1 2.655-2 5.287a44 44 0 0 0-1.4 4.928 3.445 3.445 0 0 1-.81 1.44 1.918 1.918 0 0 1-1.842.405zM9.788-12.105a6.067 6.067 0 0 0-3.465.968 3.353 3.353 0 0 0-1.44 2.993 3.041 3.041 0 0 0 1.395 2.631 6.017 6.017 0 0 0 3.51.968 5.951 5.951 0 0 0 3.578-.968 3.086 3.086 0 0 0 1.327-2.633 3.39 3.39 0 0 0-1.393-2.992 6.017 6.017 0 0 0-3.512-.967zm-4.14-7.335a2.853 2.853 0 0 0 1.215 2.452 4.862 4.862 0 0 0 2.925.878 4.963 4.963 0 0 0 2.948-.878 2.836 2.836 0 0 0 1.238-2.452 2.67 2.67 0 0 0-1.215-2.3 5.03 5.03 0 0 0-2.97-.855 4.952 4.952 0 0 0-2.925.855 2.67 2.67 0 0 0-1.216 2.3zM.653-7.875a6.653 6.653 0 0 1 1.035-3.848 7.5 7.5 0 0 1 2.745-2.407 6.233 6.233 0 0 1-2.227-2.363 6.411 6.411 0 0 1-.788-3.083 6.9 6.9 0 0 1 .63-2.993A6.235 6.235 0 0 1 3.8-24.8a7.96 7.96 0 0 1 2.655-1.373 11.237 11.237 0 0 1 3.33-.472 11.462 11.462 0 0 1 3.352.472 7.931 7.931 0 0 1 2.681 1.373 6.235 6.235 0 0 1 1.755 2.227 6.9 6.9 0 0 1 .63 2.993 7.029 7.029 0 0 1-.7 3.1 5.409 5.409 0 0 1-2.272 2.34A6.88 6.88 0 0 1 18-11.745a6.98 6.98 0 0 1 .968 3.87 6.6 6.6 0 0 1-.743 3.15 7.346 7.346 0 0 1-1.98 2.363A8.669 8.669 0 0 1 13.343-.9a12.416 12.416 0 0 1-3.555.5 12.254 12.254 0 0 1-3.51-.5 8.928 8.928 0 0 1-2.925-1.463 6.987 6.987 0 0 1-1.98-2.363 6.767 6.767 0 0 1-.72-3.149z" transform="translate(-272 -3221.704) translate(312 3275.704)"/>
    </g>
</svg>
