<svg xmlns="http://www.w3.org/2000/svg" width="80" height="80" viewBox="0 0 80 80">
    <g>
        <g fill="#fff5e6" stroke="#ffe6c1" stroke-width="10px" transform="translate(-43 -3275.703) translate(43 3275.703)">
            <circle cx="40" cy="40" r="40" stroke="none"/>
            <circle cx="40" cy="40" r="35" fill="none"/>
        </g>
        <path fill="#806a3e" d="M-10.463-12.105a6.067 6.067 0 0 0-3.465.968 3.353 3.353 0 0 0-1.44 2.993 3.041 3.041 0 0 0 1.395 2.633 6.017 6.017 0 0 0 3.51.968 5.951 5.951 0 0 0 3.578-.968 3.086 3.086 0 0 0 1.327-2.634 3.39 3.39 0 0 0-1.395-2.993 6.017 6.017 0 0 0-3.51-.967zM-14.6-19.44a2.853 2.853 0 0 0 1.215 2.452 4.862 4.862 0 0 0 2.925.878 4.963 4.963 0 0 0 2.948-.878 2.836 2.836 0 0 0 1.234-2.452 2.67 2.67 0 0 0-1.215-2.3 5.03 5.03 0 0 0-2.97-.855 4.952 4.952 0 0 0-2.925.855 2.67 2.67 0 0 0-1.212 2.3zm-5 11.565a6.653 6.653 0 0 1 1.035-3.848 7.5 7.5 0 0 1 2.745-2.407 6.233 6.233 0 0 1-2.227-2.363 6.411 6.411 0 0 1-.788-3.083 6.9 6.9 0 0 1 .63-2.993 6.235 6.235 0 0 1 1.757-2.231 7.96 7.96 0 0 1 2.655-1.373 11.237 11.237 0 0 1 3.33-.472 11.462 11.462 0 0 1 3.352.472A7.931 7.931 0 0 1-4.433-24.8a6.235 6.235 0 0 1 1.755 2.227 6.9 6.9 0 0 1 .63 2.993 7.029 7.029 0 0 1-.7 3.1 5.409 5.409 0 0 1-2.272 2.34 6.88 6.88 0 0 1 2.77 2.395 6.98 6.98 0 0 1 .968 3.87 6.6 6.6 0 0 1-.743 3.15 7.346 7.346 0 0 1-1.98 2.363A8.669 8.669 0 0 1-6.908-.9a12.416 12.416 0 0 1-3.555.5 12.254 12.254 0 0 1-3.51-.5A8.928 8.928 0 0 1-16.9-2.363a6.987 6.987 0 0 1-1.98-2.363 6.767 6.767 0 0 1-.72-3.149zm30.24 3.33a4.43 4.43 0 0 0 1.778-.36A3.293 3.293 0 0 0 13.86-6.21a7.991 7.991 0 0 0 .968-2.59 20.218 20.218 0 0 0 .36-4.207 23.2 23.2 0 0 0-.427-4.95 9.52 9.52 0 0 0-1.08-2.925 3.47 3.47 0 0 0-1.462-1.4 3.865 3.865 0 0 0-1.575-.36 3.714 3.714 0 0 0-1.553.36 3.516 3.516 0 0 0-1.44 1.4 9.52 9.52 0 0 0-1.08 2.925 23.2 23.2 0 0 0-.427 4.95A20.218 20.218 0 0 0 6.5-8.8a7.991 7.991 0 0 0 .97 2.59 3.329 3.329 0 0 0 1.417 1.305 4.272 4.272 0 0 0 1.755.36zm0 4.1a9.012 9.012 0 0 1-3.6-.7A7.025 7.025 0 0 1 4.25-3.35a10.773 10.773 0 0 1-1.8-3.893 22.824 22.824 0 0 1-.63-5.76 25.592 25.592 0 0 1 .7-6.458 12.052 12.052 0 0 1 1.89-4.209 7.025 7.025 0 0 1 2.79-2.272 8.508 8.508 0 0 1 3.443-.7 8.668 8.668 0 0 1 3.465.7 6.985 6.985 0 0 1 2.812 2.272 12.052 12.052 0 0 1 1.89 4.208 25.592 25.592 0 0 1 .7 6.458 22.824 22.824 0 0 1-.63 5.76 10.773 10.773 0 0 1-1.8 3.893 6.988 6.988 0 0 1-2.813 2.205 9.175 9.175 0 0 1-3.625.696z" transform="translate(-43 -3275.703) translate(83 3329.703)"/>
    </g>
</svg>
