<svg xmlns="http://www.w3.org/2000/svg" width="80" height="80" viewBox="0 0 80 80">
    <g>
        <g fill="#fff5e6" stroke="#ffe6c1" stroke-width="10px" transform="translate(-131 -3492.703) translate(131 3492.703)">
            <circle cx="40" cy="40" r="40" stroke="none"/>
            <circle cx="40" cy="40" r="35" fill="none"/>
        </g>
        <path fill="#806a3e" d="M-10.463-12.105a6.067 6.067 0 0 0-3.465.968 3.353 3.353 0 0 0-1.44 2.993 3.041 3.041 0 0 0 1.395 2.633 6.017 6.017 0 0 0 3.51.968 5.951 5.951 0 0 0 3.578-.968 3.086 3.086 0 0 0 1.327-2.634 3.39 3.39 0 0 0-1.395-2.993 6.017 6.017 0 0 0-3.51-.967zM-14.6-19.44a2.853 2.853 0 0 0 1.215 2.452 4.862 4.862 0 0 0 2.925.878 4.963 4.963 0 0 0 2.948-.878 2.836 2.836 0 0 0 1.234-2.452 2.67 2.67 0 0 0-1.215-2.3 5.03 5.03 0 0 0-2.97-.855 4.952 4.952 0 0 0-2.925.855 2.67 2.67 0 0 0-1.212 2.3zm-5 11.565a6.653 6.653 0 0 1 1.035-3.848 7.5 7.5 0 0 1 2.745-2.407 6.233 6.233 0 0 1-2.227-2.363 6.411 6.411 0 0 1-.788-3.083 6.9 6.9 0 0 1 .63-2.993 6.235 6.235 0 0 1 1.757-2.231 7.96 7.96 0 0 1 2.655-1.373 11.237 11.237 0 0 1 3.33-.472 11.462 11.462 0 0 1 3.352.472A7.931 7.931 0 0 1-4.433-24.8a6.235 6.235 0 0 1 1.755 2.227 6.9 6.9 0 0 1 .63 2.993 7.029 7.029 0 0 1-.7 3.1 5.409 5.409 0 0 1-2.272 2.34 6.88 6.88 0 0 1 2.77 2.395 6.98 6.98 0 0 1 .968 3.87 6.6 6.6 0 0 1-.743 3.15 7.346 7.346 0 0 1-1.98 2.363A8.669 8.669 0 0 1-6.908-.9a12.416 12.416 0 0 1-3.555.5 12.254 12.254 0 0 1-3.51-.5A8.928 8.928 0 0 1-16.9-2.363a6.987 6.987 0 0 1-1.98-2.363 6.767 6.767 0 0 1-.72-3.149zM16.448-2.7a2.561 2.561 0 0 1-.518 1.643 2.026 2.026 0 0 1-1.687.652 1.891 1.891 0 0 1-1.687-.7 2.781 2.781 0 0 1-.473-1.6V-5.85H3.667a4.069 4.069 0 0 1-2.205-.54A1.874 1.874 0 0 1 .607-8.1a3.112 3.112 0 0 1 .113-.787 4.167 4.167 0 0 1 .38-.923 39.994 39.994 0 0 0 2.723-7.357 75.1 75.1 0 0 0 1.6-7.628 1.654 1.654 0 0 1 .788-1.327 2.233 2.233 0 0 1 1.462-.337 1.886 1.886 0 0 1 1.463.765 2.105 2.105 0 0 1 .382 1.485Q9.338-22.5 9-20.7t-.765 3.6q-.428 1.8-.99 3.51t-1.193 3.24q-.135.54.36.54h5.67v-12.78a3.476 3.476 0 0 1-.765-.855A1.9 1.9 0 0 1 11-24.48a2.083 2.083 0 0 1 .63-1.53 2.083 2.083 0 0 1 1.53-.63 2.892 2.892 0 0 1 2.2.855 4.294 4.294 0 0 1 1.08 2.025v13.95h2.475a1.794 1.794 0 0 1 1.35.563 1.965 1.965 0 0 1 .54 1.418 1.965 1.965 0 0 1-.54 1.418 1.794 1.794 0 0 1-1.35.563h-2.467z" transform="translate(-131 -3492.703) translate(171 3546.703)"/>
    </g>
</svg>
