<svg xmlns="http://www.w3.org/2000/svg" width="80" height="80" viewBox="0 0 80 80">
    <g>
        <g fill="#fff5e6" stroke="#ffe6c1" stroke-width="10px" transform="translate(-14 -3520.703) translate(14 3520.703)">
            <circle cx="40" cy="40" r="40" stroke="none"/>
            <circle cx="40" cy="40" r="35" fill="none"/>
        </g>
        <path fill="#806a3e" d="M-9.9-12.105a6.067 6.067 0 0 0-3.465.968 3.353 3.353 0 0 0-1.44 2.993 3.041 3.041 0 0 0 1.395 2.631 6.017 6.017 0 0 0 3.51.968 5.951 5.951 0 0 0 3.578-.968A3.086 3.086 0 0 0-5-8.145a3.39 3.39 0 0 0-1.39-2.993 6.017 6.017 0 0 0-3.51-.967zm-4.14-7.335a2.853 2.853 0 0 0 1.215 2.452 4.862 4.862 0 0 0 2.925.878 4.963 4.963 0 0 0 2.948-.878 2.836 2.836 0 0 0 1.237-2.452 2.67 2.67 0 0 0-1.215-2.3 5.03 5.03 0 0 0-2.97-.85 4.952 4.952 0 0 0-2.925.855 2.67 2.67 0 0 0-1.215 2.295zm-4.995 11.565A6.653 6.653 0 0 1-18-11.723a7.5 7.5 0 0 1 2.745-2.407 6.233 6.233 0 0 1-2.227-2.363 6.411 6.411 0 0 1-.788-3.083 6.9 6.9 0 0 1 .63-2.993 6.235 6.235 0 0 1 1.755-2.231 7.96 7.96 0 0 1 2.655-1.373 11.237 11.237 0 0 1 3.33-.467 11.462 11.462 0 0 1 3.352.472A7.931 7.931 0 0 1-3.87-24.8a6.235 6.235 0 0 1 1.755 2.227 6.9 6.9 0 0 1 .63 2.993 7.029 7.029 0 0 1-.7 3.1 5.409 5.409 0 0 1-2.272 2.34 6.88 6.88 0 0 1 2.767 2.385 6.98 6.98 0 0 1 .97 3.88 6.6 6.6 0 0 1-.743 3.15 7.346 7.346 0 0 1-1.98 2.363A8.669 8.669 0 0 1-6.345-.9 12.416 12.416 0 0 1-9.9-.4a12.254 12.254 0 0 1-3.51-.5 8.928 8.928 0 0 1-2.925-1.463 6.987 6.987 0 0 1-1.98-2.363 6.767 6.767 0 0 1-.72-3.149zM10.71-.405a9.422 9.422 0 0 1-5.355-1.417A7.947 7.947 0 0 1 2.34-5.4a2.924 2.924 0 0 1-.27-1.553 1.8 1.8 0 0 1 .99-1.283 2.022 2.022 0 0 1 1.777-.224A2.51 2.51 0 0 1 6.165-7.2a4.294 4.294 0 0 0 1.957 2.138 5.8 5.8 0 0 0 2.587.607 3.981 3.981 0 0 0 3.173-1.215 4.07 4.07 0 0 0 1.058-2.745 6.591 6.591 0 0 0-.18-1.463 3.611 3.611 0 0 0-.72-1.462 4.1 4.1 0 0 0-1.508-1.125 6.08 6.08 0 0 0-2.542-.45 7.762 7.762 0 0 0-2.227.315 7.451 7.451 0 0 1-2.138.315 2.676 2.676 0 0 1-1.98-.72 3.361 3.361 0 0 1-.72-2.43V-24.3a1.911 1.911 0 0 1 .63-1.687 2.915 2.915 0 0 1 1.665-.427h11.025a2.085 2.085 0 0 1 1.508.54 1.961 1.961 0 0 1 .563 1.485 2.115 2.115 0 0 1-.562 1.53 1.994 1.994 0 0 1-1.508.585H7.74a.438.438 0 0 0-.495.5v4.68q0 .5.157.563a1.04 1.04 0 0 0 .562-.023 13.859 13.859 0 0 1 2.97-.315 9.726 9.726 0 0 1 3.735.653 7.341 7.341 0 0 1 2.632 1.8 7.144 7.144 0 0 1 1.552 2.678 9.945 9.945 0 0 1 .45 3.33 9.468 9.468 0 0 1-.603 3.165A7.213 7.213 0 0 1 17.055-2.7a7.491 7.491 0 0 1-2.678 1.687 10.273 10.273 0 0 1-3.667.608z" transform="translate(-14 -3520.703) translate(54 3574.703)"/>
    </g>
</svg>
