<svg xmlns="http://www.w3.org/2000/svg" width="80" height="80" viewBox="0 0 80 80">
    <g>
        <g fill="#fff5e6" stroke="#ffe6c1" stroke-width="10px" transform="translate(-272 -3677.472) translate(272 3677.472)">
            <circle cx="40" cy="40" r="40" stroke="none"/>
            <circle cx="40" cy="40" r="35" fill="none"/>
        </g>
        <path fill="#806a3e" d="M-10.575-12.105a6.067 6.067 0 0 0-3.465.968 3.353 3.353 0 0 0-1.44 2.993 3.041 3.041 0 0 0 1.395 2.633 6.017 6.017 0 0 0 3.51.968A5.951 5.951 0 0 0-7-5.513a3.086 3.086 0 0 0 1.33-2.632 3.39 3.39 0 0 0-1.395-2.993 6.017 6.017 0 0 0-3.51-.967zm-4.14-7.335a2.853 2.853 0 0 0 1.215 2.452 4.862 4.862 0 0 0 2.925.878 4.963 4.963 0 0 0 2.948-.878A2.836 2.836 0 0 0-6.39-19.44a2.67 2.67 0 0 0-1.215-2.3 5.03 5.03 0 0 0-2.97-.855 4.952 4.952 0 0 0-2.925.855 2.67 2.67 0 0 0-1.215 2.3zM-19.71-7.875a6.653 6.653 0 0 1 1.035-3.848 7.5 7.5 0 0 1 2.745-2.407 6.233 6.233 0 0 1-2.227-2.363 6.411 6.411 0 0 1-.788-3.083 6.9 6.9 0 0 1 .63-2.993A6.235 6.235 0 0 1-16.56-24.8a7.96 7.96 0 0 1 2.66-1.368 11.237 11.237 0 0 1 3.33-.472 11.462 11.462 0 0 1 3.352.472A7.931 7.931 0 0 1-4.545-24.8a6.235 6.235 0 0 1 1.755 2.232 6.9 6.9 0 0 1 .63 2.993 7.029 7.029 0 0 1-.7 3.1 5.409 5.409 0 0 1-2.27 2.345 6.88 6.88 0 0 1 2.767 2.385 6.98 6.98 0 0 1 .968 3.87 6.6 6.6 0 0 1-.743 3.15 7.346 7.346 0 0 1-1.98 2.363A8.669 8.669 0 0 1-7.02-.9a12.416 12.416 0 0 1-3.555.5 12.254 12.254 0 0 1-3.51-.5 8.928 8.928 0 0 1-2.925-1.463 6.987 6.987 0 0 1-1.98-2.363 6.767 6.767 0 0 1-.72-3.149zm30.51-4.23a6.067 6.067 0 0 0-3.465.968A3.353 3.353 0 0 0 5.9-8.145a3.041 3.041 0 0 0 1.39 2.632 6.017 6.017 0 0 0 3.51.968 5.951 5.951 0 0 0 3.578-.968A3.086 3.086 0 0 0 15.7-8.145a3.39 3.39 0 0 0-1.395-2.993 6.017 6.017 0 0 0-3.505-.967zM6.66-19.44a2.853 2.853 0 0 0 1.215 2.452 4.862 4.862 0 0 0 2.925.878 4.963 4.963 0 0 0 2.948-.878 2.836 2.836 0 0 0 1.238-2.452 2.67 2.67 0 0 0-1.215-2.3 5.03 5.03 0 0 0-2.97-.855 4.952 4.952 0 0 0-2.925.855 2.67 2.67 0 0 0-1.216 2.3zM1.665-7.875A6.653 6.653 0 0 1 2.7-11.723a7.5 7.5 0 0 1 2.745-2.407 6.233 6.233 0 0 1-2.227-2.363 6.411 6.411 0 0 1-.788-3.083 6.9 6.9 0 0 1 .63-2.993A6.235 6.235 0 0 1 4.815-24.8a7.96 7.96 0 0 1 2.655-1.368 11.237 11.237 0 0 1 3.33-.472 11.462 11.462 0 0 1 3.352.472A7.931 7.931 0 0 1 16.83-24.8a6.235 6.235 0 0 1 1.755 2.227 6.9 6.9 0 0 1 .63 2.993 7.029 7.029 0 0 1-.7 3.1 5.409 5.409 0 0 1-2.272 2.34 6.88 6.88 0 0 1 2.767 2.385 6.98 6.98 0 0 1 .968 3.87 6.6 6.6 0 0 1-.743 3.15 7.346 7.346 0 0 1-1.98 2.363 8.669 8.669 0 0 1-2.9 1.472 12.416 12.416 0 0 1-3.555.5 12.254 12.254 0 0 1-3.51-.5 8.928 8.928 0 0 1-2.925-1.463 6.987 6.987 0 0 1-1.98-2.363 6.767 6.767 0 0 1-.72-3.149z" transform="translate(-272 -3677.472) translate(312 3731.472)"/>
    </g>
</svg>
