<svg xmlns="http://www.w3.org/2000/svg" width="80" height="80" viewBox="0 0 80 80">
    <g>
        <g fill="#fff5e6" stroke="#ffe6c1" stroke-width="10px" transform="translate(-171 -530) translate(171 530)">
            <circle cx="40" cy="40" r="40" stroke="none"/>
            <circle cx="40" cy="40" r="35" fill="none"/>
        </g>
        <path fill="#806a3e" d="M-4.365-.5a3.626 3.626 0 0 1-1.62-.45 1.694 1.694 0 0 1-.72-1.62 1.921 1.921 0 0 1 .742-1.66 2.545 2.545 0 0 1 1.778-.45A8.45 8.45 0 0 0-1.8-4.838 7.688 7.688 0 0 0 .4-5.67a7.347 7.347 0 0 0 1.9-1.553A7.883 7.883 0 0 0 3.69-9.54q.225-.495.09-.652t-.58.112a6.778 6.778 0 0 1-2.048.855A9.017 9.017 0 0 1-.81-9a8.157 8.157 0 0 1-3.33-.675 7.954 7.954 0 0 1-2.66-1.89 8.444 8.444 0 0 1-1.732-2.88 10.038 10.038 0 0 1-.563-3.69 10.12 10.12 0 0 1 .653-3.42 7.83 7.83 0 0 1 1.71-2.7 7.653 7.653 0 0 1 2.7-1.755 9.68 9.68 0 0 1 3.582-.63 8.418 8.418 0 0 1 3.735.832 8.287 8.287 0 0 1 2.925 2.385 11.781 11.781 0 0 1 1.912 3.78 16.762 16.762 0 0 1 .7 5.017A19.182 19.182 0 0 1 7.9-8.415a12.163 12.163 0 0 1-2.658 4.522 10.644 10.644 0 0 1-4.163 2.7A13.533 13.533 0 0 1-4.365-.5zM-.5-13.1a4.8 4.8 0 0 0 2.88-.945 8.88 8.88 0 0 0 2.07-2.025 7.612 7.612 0 0 0-1.457-4.83A4.4 4.4 0 0 0-.5-22.5a3.866 3.866 0 0 0-3.082 1.215 4.933 4.933 0 0 0-1.143 3.105 5.217 5.217 0 0 0 1.08 3.69A3.9 3.9 0 0 0-.5-13.1z" transform="translate(-171 -530) translate(211 584)"/>
    </g>
</svg>
