<svg xmlns="http://www.w3.org/2000/svg" width="80" height="80" viewBox="0 0 80 80">
    <g>
        <g fill="#fff5e6" stroke="#ffe6c1" stroke-width="10px" transform="translate(-43 -3731.703) translate(43 3731.703)">
            <circle cx="40" cy="40" r="40" stroke="none"/>
            <circle cx="40" cy="40" r="35" fill="none"/>
        </g>
        <path fill="#806a3e" d="M-14.94-.5a3.626 3.626 0 0 1-1.62-.45 1.694 1.694 0 0 1-.72-1.62 1.921 1.921 0 0 1 .742-1.665 2.545 2.545 0 0 1 1.778-.45 8.45 8.45 0 0 0 2.385-.157 7.688 7.688 0 0 0 2.2-.832A7.347 7.347 0 0 0-8.28-7.223 7.883 7.883 0 0 0-6.885-9.54q.225-.495.09-.652t-.585.113a6.778 6.778 0 0 1-2.048.855A9.017 9.017 0 0 1-11.385-9a8.157 8.157 0 0 1-3.33-.675 7.954 7.954 0 0 1-2.655-1.89 8.444 8.444 0 0 1-1.733-2.88 10.037 10.037 0 0 1-.562-3.69 10.12 10.12 0 0 1 .653-3.42 7.83 7.83 0 0 1 1.71-2.7 7.653 7.653 0 0 1 2.7-1.755 9.68 9.68 0 0 1 3.577-.63 8.418 8.418 0 0 1 3.735.832 8.287 8.287 0 0 1 2.925 2.385 11.781 11.781 0 0 1 1.912 3.78 16.762 16.762 0 0 1 .7 5.017 19.182 19.182 0 0 1-.922 6.21 12.163 12.163 0 0 1-2.658 4.523 10.644 10.644 0 0 1-4.167 2.7 13.533 13.533 0 0 1-5.44.693zm3.87-12.6a4.8 4.8 0 0 0 2.88-.945 8.88 8.88 0 0 0 2.07-2.025 7.612 7.612 0 0 0-1.463-4.83 4.4 4.4 0 0 0-3.488-1.6 3.866 3.866 0 0 0-3.082 1.215A4.933 4.933 0 0 0-15.3-18.18a5.217 5.217 0 0 0 1.08 3.69 3.9 3.9 0 0 0 3.15 1.39zm21.6 8.55a4.43 4.43 0 0 0 1.778-.36 3.293 3.293 0 0 0 1.44-1.305 7.991 7.991 0 0 0 .967-2.585 20.218 20.218 0 0 0 .36-4.207 23.2 23.2 0 0 0-.427-4.95 9.52 9.52 0 0 0-1.08-2.925 3.47 3.47 0 0 0-1.462-1.4 3.865 3.865 0 0 0-1.575-.36 3.714 3.714 0 0 0-1.553.36 3.516 3.516 0 0 0-1.44 1.4 9.52 9.52 0 0 0-1.08 2.925 23.2 23.2 0 0 0-.427 4.95A20.218 20.218 0 0 0 6.39-8.8a7.991 7.991 0 0 0 .968 2.59 3.329 3.329 0 0 0 1.417 1.305 4.272 4.272 0 0 0 1.755.36zm0 4.1a9.012 9.012 0 0 1-3.6-.7 7.025 7.025 0 0 1-2.79-2.203 10.773 10.773 0 0 1-1.8-3.893 22.824 22.824 0 0 1-.63-5.76 25.592 25.592 0 0 1 .7-6.458A12.052 12.052 0 0 1 4.3-23.67a7.025 7.025 0 0 1 2.79-2.272 8.508 8.508 0 0 1 3.443-.7 8.668 8.668 0 0 1 3.465.7 6.985 6.985 0 0 1 2.812 2.272 12.052 12.052 0 0 1 1.89 4.208 25.592 25.592 0 0 1 .7 6.458 22.824 22.824 0 0 1-.63 5.76 10.773 10.773 0 0 1-1.8 3.893 6.988 6.988 0 0 1-2.812 2.205 9.175 9.175 0 0 1-3.628.696z" transform="translate(-43 -3731.703) translate(83 3785.703)"/>
    </g>
</svg>
