<svg xmlns="http://www.w3.org/2000/svg" width="80" height="80" viewBox="0 0 80 80">
    <g>
        <g fill="#fff5e6" stroke="#ffe6c1" stroke-width="10px" transform="translate(-96 -3834.703) translate(96 3834.703)">
            <circle cx="40" cy="40" r="40" stroke="none"/>
            <circle cx="40" cy="40" r="35" fill="none"/>
        </g>
        <path fill="#806a3e" d="M-9.99-.5a3.626 3.626 0 0 1-1.62-.45 1.694 1.694 0 0 1-.72-1.62 1.921 1.921 0 0 1 .743-1.665A2.545 2.545 0 0 1-9.81-4.68a8.45 8.45 0 0 0 2.385-.157 7.688 7.688 0 0 0 2.2-.832A7.347 7.347 0 0 0-3.33-7.223 7.883 7.883 0 0 0-1.935-9.54q.225-.495.09-.652t-.585.113a6.778 6.778 0 0 1-2.048.855A9.017 9.017 0 0 1-6.435-9a8.157 8.157 0 0 1-3.33-.675 7.954 7.954 0 0 1-2.655-1.89 8.444 8.444 0 0 1-1.733-2.88 10.038 10.038 0 0 1-.563-3.69 10.12 10.12 0 0 1 .653-3.42 7.83 7.83 0 0 1 1.71-2.7 7.653 7.653 0 0 1 2.7-1.755 9.68 9.68 0 0 1 3.577-.63 8.418 8.418 0 0 1 3.735.832 8.287 8.287 0 0 1 2.926 2.385A11.781 11.781 0 0 1 2.5-19.642a16.762 16.762 0 0 1 .7 5.017 19.182 19.182 0 0 1-.922 6.21A12.163 12.163 0 0 1-.383-3.893a10.644 10.644 0 0 1-4.163 2.7A13.533 13.533 0 0 1-9.99-.5zm3.87-12.6a4.8 4.8 0 0 0 2.88-.945 8.88 8.88 0 0 0 2.07-2.025 7.612 7.612 0 0 0-1.462-4.83 4.4 4.4 0 0 0-3.488-1.6 3.866 3.866 0 0 0-3.08 1.215 4.933 4.933 0 0 0-1.15 3.105 5.217 5.217 0 0 0 1.08 3.69 3.9 3.9 0 0 0 3.15 1.39zM9.5-20.25l-.945.675A2.828 2.828 0 0 1 7-19.058a1.59 1.59 0 0 1-1.372-.7 2.267 2.267 0 0 1-.473-1.035 1.891 1.891 0 0 1 .09-.923 2.252 2.252 0 0 1 .472-.765 6.575 6.575 0 0 1 .583-.559l3.87-2.97a2.5 2.5 0 0 1 1.485-.63 2.051 2.051 0 0 1 1.733.585 2.615 2.615 0 0 1 .427 1.575v21.915a2 2 0 0 1-.675 1.553 2.281 2.281 0 0 1-1.575.608 1.861 1.861 0 0 1-1.552-.652A2.357 2.357 0 0 1 9.5-2.565z" transform="translate(-96 -3834.703) translate(136 3888.703)"/>
    </g>
</svg>
