<svg xmlns="http://www.w3.org/2000/svg" width="80" height="80" viewBox="0 0 80 80">
    <g>
        <g fill="#fff5e6" stroke="#ffe6c1" stroke-width="10px" transform="translate(-206 -3834.703) translate(206 3834.703)">
            <circle cx="40" cy="40" r="40" stroke="none"/>
            <circle cx="40" cy="40" r="35" fill="none"/>
        </g>
        <path fill="#806a3e" d="M-14.04-.5a3.626 3.626 0 0 1-1.62-.45 1.694 1.694 0 0 1-.72-1.62 1.921 1.921 0 0 1 .742-1.665 2.545 2.545 0 0 1 1.778-.45 8.45 8.45 0 0 0 2.385-.157 7.688 7.688 0 0 0 2.2-.832A7.347 7.347 0 0 0-7.38-7.223 7.883 7.883 0 0 0-5.985-9.54q.225-.495.09-.652t-.585.113a6.778 6.778 0 0 1-2.048.855A9.017 9.017 0 0 1-10.485-9a8.157 8.157 0 0 1-3.33-.675 7.954 7.954 0 0 1-2.655-1.89 8.444 8.444 0 0 1-1.733-2.88 10.037 10.037 0 0 1-.562-3.69 10.12 10.12 0 0 1 .653-3.42 7.83 7.83 0 0 1 1.71-2.7 7.653 7.653 0 0 1 2.7-1.755 9.68 9.68 0 0 1 3.577-.63 8.418 8.418 0 0 1 3.735.832 8.287 8.287 0 0 1 2.925 2.385 11.781 11.781 0 0 1 1.912 3.78 16.762 16.762 0 0 1 .7 5.017 19.182 19.182 0 0 1-.922 6.21 12.163 12.163 0 0 1-2.657 4.523 10.644 10.644 0 0 1-4.168 2.7 13.533 13.533 0 0 1-5.44.693zm3.87-12.6a4.8 4.8 0 0 0 2.88-.945 8.88 8.88 0 0 0 2.07-2.025 7.612 7.612 0 0 0-1.462-4.83 4.4 4.4 0 0 0-3.488-1.6 3.866 3.866 0 0 0-3.082 1.215A4.933 4.933 0 0 0-14.4-18.18a5.217 5.217 0 0 0 1.08 3.69 3.9 3.9 0 0 0 3.15 1.39zM4.77-.855a2.637 2.637 0 0 1-2.16-.7 2.539 2.539 0 0 1-.54-1.6 6.808 6.808 0 0 1 .855-3.2A15.9 15.9 0 0 1 5.2-9.54a27.494 27.494 0 0 1 3.24-3.037q1.82-1.463 3.76-2.768a4.82 4.82 0 0 0 2.47-4.055 3.1 3.1 0 0 0-.9-2.2 4.325 4.325 0 0 0-3.2-.945 5.22 5.22 0 0 0-1.35.18 3.556 3.556 0 0 0-1.26.63 4.022 4.022 0 0 0-1.035 1.26 7.562 7.562 0 0 0-.72 2.025 1.829 1.829 0 0 1-.855 1.125 2.515 2.515 0 0 1-1.53.27 1.981 1.981 0 0 1-1.193-.562 1.673 1.673 0 0 1-.473-1.238 7.551 7.551 0 0 1 .63-3.06 7.293 7.293 0 0 1 1.761-2.475 8.46 8.46 0 0 1 2.678-1.642 9.119 9.119 0 0 1 3.352-.607 8.746 8.746 0 0 1 6.21 2.025 6.834 6.834 0 0 1 2.16 5.22 11.1 11.1 0 0 1-.135 1.688 7.211 7.211 0 0 1-.54 1.8 7.47 7.47 0 0 1-1.17 1.822 9.065 9.065 0 0 1-2.025 1.71 47.637 47.637 0 0 0-4.253 3.127A19.964 19.964 0 0 0 7.47-5.805a1.341 1.341 0 0 0-.135.18.517.517 0 0 0-.09.292.341.341 0 0 0 .135.27.9.9 0 0 0 .54.112h9.135a1.7 1.7 0 0 1 1.44.585 2.365 2.365 0 0 1 .45 1.485 2.007 2.007 0 0 1-.54 1.485 1.832 1.832 0 0 1-1.35.54z" transform="translate(-206 -3834.703) translate(246 3888.703)"/>
    </g>
</svg>
