<svg xmlns="http://www.w3.org/2000/svg" width="80" height="80" viewBox="0 0 80 80">
    <g>
        <g fill="#fff5e6" stroke="#ffe6c1" stroke-width="10px" transform="translate(-131 -3948.435) translate(131 3948.435)">
            <circle cx="40" cy="40" r="40" stroke="none"/>
            <circle cx="40" cy="40" r="35" fill="none"/>
        </g>
        <path fill="#806a3e" d="M-14.94-.5a3.626 3.626 0 0 1-1.62-.45 1.694 1.694 0 0 1-.72-1.62 1.921 1.921 0 0 1 .742-1.665 2.545 2.545 0 0 1 1.778-.45 8.45 8.45 0 0 0 2.385-.157 7.688 7.688 0 0 0 2.2-.832A7.347 7.347 0 0 0-8.28-7.223 7.883 7.883 0 0 0-6.885-9.54q.225-.495.09-.652t-.585.113a6.778 6.778 0 0 1-2.048.855A9.017 9.017 0 0 1-11.385-9a8.157 8.157 0 0 1-3.33-.675 7.954 7.954 0 0 1-2.655-1.89 8.444 8.444 0 0 1-1.733-2.88 10.037 10.037 0 0 1-.562-3.69 10.12 10.12 0 0 1 .653-3.42 7.83 7.83 0 0 1 1.71-2.7 7.653 7.653 0 0 1 2.7-1.755 9.68 9.68 0 0 1 3.577-.63 8.418 8.418 0 0 1 3.735.832 8.287 8.287 0 0 1 2.925 2.385 11.781 11.781 0 0 1 1.912 3.78 16.762 16.762 0 0 1 .7 5.017 19.182 19.182 0 0 1-.922 6.21 12.163 12.163 0 0 1-2.658 4.523 10.644 10.644 0 0 1-4.167 2.7 13.533 13.533 0 0 1-5.44.693zm3.87-12.6a4.8 4.8 0 0 0 2.88-.945 8.88 8.88 0 0 0 2.07-2.025 7.612 7.612 0 0 0-1.463-4.83 4.4 4.4 0 0 0-3.488-1.6 3.866 3.866 0 0 0-3.082 1.215A4.933 4.933 0 0 0-15.3-18.18a5.217 5.217 0 0 0 1.08 3.69 3.9 3.9 0 0 0 3.15 1.39zM16.335-2.7a2.561 2.561 0 0 1-.518 1.643 2.026 2.026 0 0 1-1.687.652 1.891 1.891 0 0 1-1.687-.7 2.781 2.781 0 0 1-.473-1.6V-5.85H3.555a4.069 4.069 0 0 1-2.205-.54A1.874 1.874 0 0 1 .5-8.1a3.112 3.112 0 0 1 .112-.787A4.167 4.167 0 0 1 .99-9.81a39.994 39.994 0 0 0 2.723-7.357A75.1 75.1 0 0 0 5.31-24.8a1.654 1.654 0 0 1 .79-1.322 2.233 2.233 0 0 1 1.46-.338 1.886 1.886 0 0 1 1.463.765 2.105 2.105 0 0 1 .382 1.485q-.18 1.71-.518 3.51t-.765 3.6q-.428 1.8-.99 3.51T5.94-10.35q-.135.54.36.54h5.67v-12.78a3.476 3.476 0 0 1-.765-.855 1.9 1.9 0 0 1-.315-1.035 2.083 2.083 0 0 1 .63-1.53 2.083 2.083 0 0 1 1.53-.63 2.892 2.892 0 0 1 2.2.855 4.294 4.294 0 0 1 1.08 2.025v13.95h2.48a1.794 1.794 0 0 1 1.35.563 1.965 1.965 0 0 1 .54 1.417 1.965 1.965 0 0 1-.54 1.418 1.794 1.794 0 0 1-1.35.563h-2.475z" transform="translate(-131 -3948.435) translate(171 4002.435)"/>
    </g>
</svg>
