<svg xmlns="http://www.w3.org/2000/svg" width="80" height="80" viewBox="0 0 80 80">
    <g>
        <g fill="#fff5e6" stroke="#ffe6c1" stroke-width="10px" transform="translate(-96 -4062.435) translate(96 4062.435)">
            <circle cx="40" cy="40" r="40" stroke="none"/>
            <circle cx="40" cy="40" r="35" fill="none"/>
        </g>
        <path fill="#806a3e" d="M-14.94-.5a3.626 3.626 0 0 1-1.62-.45 1.694 1.694 0 0 1-.72-1.62 1.921 1.921 0 0 1 .742-1.665 2.545 2.545 0 0 1 1.778-.45 8.45 8.45 0 0 0 2.385-.157 7.688 7.688 0 0 0 2.2-.832A7.347 7.347 0 0 0-8.28-7.223 7.883 7.883 0 0 0-6.885-9.54q.225-.495.09-.652t-.585.113a6.778 6.778 0 0 1-2.048.855A9.017 9.017 0 0 1-11.385-9a8.157 8.157 0 0 1-3.33-.675 7.954 7.954 0 0 1-2.655-1.89 8.444 8.444 0 0 1-1.733-2.88 10.037 10.037 0 0 1-.562-3.69 10.12 10.12 0 0 1 .653-3.42 7.83 7.83 0 0 1 1.71-2.7 7.653 7.653 0 0 1 2.7-1.755 9.68 9.68 0 0 1 3.577-.63 8.418 8.418 0 0 1 3.735.832 8.287 8.287 0 0 1 2.925 2.385 11.781 11.781 0 0 1 1.912 3.78 16.762 16.762 0 0 1 .7 5.017 19.182 19.182 0 0 1-.922 6.21 12.163 12.163 0 0 1-2.658 4.523 10.644 10.644 0 0 1-4.167 2.7 13.533 13.533 0 0 1-5.44.693zm3.87-12.6a4.8 4.8 0 0 0 2.88-.945 8.88 8.88 0 0 0 2.07-2.025 7.612 7.612 0 0 0-1.463-4.83 4.4 4.4 0 0 0-3.488-1.6 3.866 3.866 0 0 0-3.082 1.215A4.933 4.933 0 0 0-15.3-18.18a5.217 5.217 0 0 0 1.08 3.69 3.9 3.9 0 0 0 3.15 1.39zM14.9-26.6a3.626 3.626 0 0 1 1.62.45 1.694 1.694 0 0 1 .72 1.62 1.921 1.921 0 0 1-.743 1.665 2.545 2.545 0 0 1-1.777.45 10.526 10.526 0 0 0-2.385.18 7.224 7.224 0 0 0-2.205.81 7.347 7.347 0 0 0-1.89 1.552 7.883 7.883 0 0 0-1.4 2.323q-.225.5-.09.653t.585-.112a6.778 6.778 0 0 1 2.048-.855 9.017 9.017 0 0 1 1.957-.225 8.158 8.158 0 0 1 3.33.675 7.718 7.718 0 0 1 2.633 1.89 8.944 8.944 0 0 1 1.732 2.88 9.732 9.732 0 0 1 .585 3.69 10.119 10.119 0 0 1-.653 3.42 7.666 7.666 0 0 1-1.733 2.7 7.933 7.933 0 0 1-2.7 1.755 9.5 9.5 0 0 1-3.555.63 8.418 8.418 0 0 1-3.735-.833A8.287 8.287 0 0 1 4.32-3.668a11.781 11.781 0 0 1-1.912-3.78 16.762 16.762 0 0 1-.7-5.017 19.182 19.182 0 0 1 .923-6.21A12.163 12.163 0 0 1 5.288-23.2a10.644 10.644 0 0 1 4.162-2.7 13.533 13.533 0 0 1 5.45-.7zM11.025-14a4.8 4.8 0 0 0-2.88.945 8.88 8.88 0 0 0-2.07 2.025 7.612 7.612 0 0 0 1.463 4.843 4.4 4.4 0 0 0 3.488 1.6 3.866 3.866 0 0 0 3.083-1.215 4.933 4.933 0 0 0 1.146-3.108 5.217 5.217 0 0 0-1.08-3.69 3.9 3.9 0 0 0-3.15-1.4z" transform="translate(-96 -4062.435) translate(136 4116.435)"/>
    </g>
</svg>
